<svg width="100" height="100" viewBox="0 0 100 100" fill="none" xmlns="http://www.w3.org/2000/svg">
<path fill-rule="evenodd" clip-rule="evenodd" d="M26.8837 74.7058C28.1809 71.7337 30.3169 69.2046 33.03 67.4284C35.7431 65.6521 38.9154 64.706 42.1582 64.7058H57.8445C61.0873 64.706 64.2597 65.6521 66.9728 67.4284C69.6859 69.2046 71.8219 71.7337 73.119 74.7058C73.431 75.4209 74.0143 75.9827 74.7406 76.2677C75.4668 76.5526 76.2765 76.5375 76.9915 76.2254C77.7066 75.9134 78.2684 75.3301 78.5534 74.6039C78.8384 73.8776 78.8232 73.0679 78.5112 72.3529C76.757 68.331 73.8671 64.9086 70.196 62.5053C66.525 60.1021 62.2323 58.8225 57.8445 58.8235H42.1582C37.7708 58.824 33.4788 60.1042 29.808 62.5072C26.1372 64.9103 23.247 68.3319 21.4916 72.3529C21.3371 72.7069 21.2539 73.088 21.2466 73.4742C21.2394 73.8604 21.3083 74.2443 21.4494 74.6039C21.5905 74.9635 21.801 75.2918 22.069 75.57C22.337 75.8482 22.6572 76.0709 23.0112 76.2254C23.3653 76.3799 23.7463 76.4632 24.1325 76.4704C24.5187 76.4777 24.9026 76.4088 25.2622 76.2677C25.6218 76.1266 25.9501 75.916 26.2283 75.648C26.5065 75.38 26.7293 75.0599 26.8837 74.7058Z" fill="#232020"/>
<path fill-rule="evenodd" clip-rule="evenodd" d="M49.9982 19.6078C37.5512 19.6078 27.4492 29.7097 27.4492 42.1568C27.4492 54.6038 37.5512 64.7058 49.9982 64.7058C62.4453 64.7058 72.5472 54.6038 72.5472 42.1568C72.5472 29.7097 62.4453 19.6078 49.9982 19.6078ZM49.9982 25.4901C59.1982 25.4901 66.6649 32.9568 66.6649 42.1568C66.6649 51.3568 59.1982 58.8234 49.9982 58.8234C40.7982 58.8234 33.3316 51.3568 33.3316 42.1568C33.3316 32.9568 40.7982 25.4901 49.9982 25.4901Z" fill="#232020"/>
<path fill-rule="evenodd" clip-rule="evenodd" d="M91.6038 35.2941C93.2313 39.8941 94.1176 44.8431 94.1176 50C94.1176 74.349 74.349 94.1176 50 94.1176C25.651 94.1176 5.88235 74.349 5.88235 50C5.88235 25.651 25.651 5.88238 50 5.88238C55.1568 5.88238 60.1058 6.76865 64.7058 8.3961C65.4375 8.64142 66.2363 8.58934 66.9299 8.2511C67.6235 7.91287 68.1564 7.31557 68.4137 6.58802C68.671 5.86046 68.632 5.06094 68.3052 4.36186C67.9783 3.66279 67.3899 3.12017 66.6666 2.85101C61.3142 0.957666 55.6774 -0.00655334 50 3.35202e-05C22.4039 3.35202e-05 0 22.4039 0 50C0 77.596 22.4039 99.9999 50 99.9999C77.596 99.9999 99.9999 77.596 99.9999 50C100.007 44.3225 99.0423 38.6858 97.1489 33.3333C96.8798 32.6101 96.3372 32.0216 95.6381 31.6948C94.939 31.368 94.1395 31.329 93.4119 31.5862C92.6844 31.8435 92.0871 32.3764 91.7488 33.07C91.4106 33.7637 91.3585 34.5624 91.6038 35.2941Z" fill="#232020"/>
<path fill-rule="evenodd" clip-rule="evenodd" d="M71.4508 20.7059L79.2939 28.549C79.5667 28.8222 79.8907 29.0389 80.2473 29.1868C80.6039 29.3347 80.9862 29.4108 81.3723 29.4108C81.7584 29.4108 82.1407 29.3347 82.4973 29.1868C82.854 29.0389 83.1779 28.8222 83.4507 28.549L99.137 12.8627C99.41 12.5898 99.6265 12.2658 99.7742 11.9092C99.9219 11.5525 99.9979 11.1703 99.9979 10.7843C99.9979 10.3983 99.9219 10.0161 99.7742 9.65948C99.6265 9.30286 99.41 8.97883 99.137 8.70588C98.8641 8.43294 98.54 8.21643 98.1834 8.06872C97.8268 7.921 97.4446 7.84497 97.0586 7.84497C96.6726 7.84497 96.2904 7.921 95.9337 8.06872C95.5771 8.21643 95.2531 8.43294 94.9801 8.70588L81.3723 22.3098L75.6076 16.549C75.3347 16.2761 75.0106 16.0596 74.654 15.9118C74.2974 15.7641 73.9152 15.6881 73.5292 15.6881C73.1432 15.6881 72.761 15.7641 72.4043 15.9118C72.0477 16.0596 71.7237 16.2761 71.4508 16.549C71.1778 16.822 70.9613 17.146 70.8136 17.5026C70.6659 17.8592 70.5898 18.2414 70.5898 18.6274C70.5898 19.0134 70.6659 19.3957 70.8136 19.7523C70.9613 20.1089 71.1778 20.4329 71.4508 20.7059Z" fill="#232020"/>
</svg>
