<svg width="45" height="48" viewBox="0 0 45 48" fill="none" xmlns="http://www.w3.org/2000/svg">
<path d="M20.375 38.3474H22.3958V45.2468H20.375V38.3474Z" fill="#D4E1F4"/>
<path d="M40.7748 0.268056C38.7481 0.268056 37.0605 1.70909 36.7258 3.59737H26.5878V0.77943C26.5878 0.399998 26.2802 0.0924072 25.9008 0.0924072H18.8907C18.5113 0.0924072 18.2037 0.399998 18.2037 0.77943V3.59737H7.97542C7.65481 1.65699 6.00218 0.173705 4.01634 0.173705C1.80172 0.174163 0 2.01802 0 4.28439C0 6.55077 1.80172 8.39508 4.01634 8.39508C6.00218 8.39508 7.65504 6.91225 7.97542 4.97141H16.8243C12.8093 7.05766 10.2943 11.2102 10.3053 15.7348C10.3053 16.1142 10.6129 16.4218 10.9924 16.4218C11.3718 16.4218 11.6794 16.1142 11.6794 15.7348C11.6686 11.425 14.2384 7.52728 18.2037 5.8389V7.78935C18.2037 8.16879 18.5113 8.47638 18.8907 8.47638H25.9008C26.2802 8.47638 26.5878 8.16879 26.5878 7.78935V5.80157C28.3643 6.54874 29.9105 7.75444 31.0681 9.29531C32.4623 11.152 33.213 13.4129 33.2061 15.7348C33.2061 16.1142 33.5137 16.4218 33.8931 16.4218C34.2726 16.4218 34.5802 16.1142 34.5802 15.7348C34.5877 13.1161 33.741 10.5664 32.1685 8.47237C31.072 7.01321 29.6638 5.81716 28.0463 4.97141H36.7264C37.0611 6.8597 38.7487 8.30073 40.7754 8.30073C43.0416 8.30073 44.8861 6.49901 44.8861 4.28439C44.8861 2.06977 43.042 0.268056 40.7748 0.268056ZM4.01634 7.02058C2.55939 7.02058 1.37405 5.79321 1.37405 4.28439C1.37405 2.77558 2.55939 1.54775 4.01634 1.54775C5.47328 1.54775 6.65863 2.77512 6.65863 4.28439C6.65863 5.79367 5.47328 7.02058 4.01634 7.02058ZM19.5774 7.10233V5.07905C19.6346 4.93251 19.6394 4.77076 19.5913 4.62103C19.5871 4.60867 19.5822 4.59687 19.5774 4.58474V1.46645H25.2137V4.53516C25.2057 4.55474 25.1981 4.57454 25.1918 4.59515C25.1437 4.74894 25.1515 4.91476 25.2137 5.06336V7.10233H19.5774ZM40.7748 6.92668C39.266 6.92668 38.0382 5.74145 38.0382 4.28439C38.0382 2.82733 39.2656 1.6421 40.7748 1.6421C42.284 1.6421 43.5115 2.82733 43.5115 4.28439C43.5115 5.74145 42.284 6.92668 40.7748 6.92668Z" fill="#232020"/>
<path d="M12.8241 20.5711C12.7136 20.3519 12.4946 20.2083 12.2495 20.1944C12.0045 20.1804 11.7706 20.2983 11.636 20.5035C11.5014 20.7088 11.4865 20.9703 11.5969 21.1895C11.9544 21.8984 12.3805 22.5706 12.8689 23.1965C13.1039 23.4905 13.5317 23.5408 13.8284 23.3092C14.1251 23.0776 14.1802 22.6504 13.952 22.3511C13.5188 21.796 13.1411 21.1999 12.8241 20.5711Z" fill="#232020"/>
<path d="M12.0651 18.6069C11.9964 18.3593 11.9365 18.1054 11.8859 17.8522C11.8406 17.6088 11.6679 17.4085 11.4337 17.3281C11.1996 17.2476 10.9402 17.2994 10.7549 17.4635C10.5696 17.6277 10.4869 17.8789 10.5385 18.121C10.5958 18.4073 10.6636 18.6936 10.7406 18.9725C10.8044 19.2109 10.9911 19.3968 11.2297 19.4595C11.4684 19.5222 11.7224 19.4521 11.8951 19.2758C12.0678 19.0996 12.1327 18.8442 12.0651 18.6069Z" fill="#232020"/>
<path d="M17.1264 25.0957C16.5146 24.7471 15.9382 24.3395 15.4056 23.8788C15.2202 23.7163 14.9619 23.6656 14.7289 23.7459C14.4958 23.8262 14.3236 24.0252 14.2777 24.2674C14.2317 24.5096 14.3191 24.7578 14.5066 24.9179C15.107 25.4374 15.7568 25.897 16.4466 26.2901C16.776 26.4742 17.1922 26.3583 17.3789 26.0304C17.5656 25.7024 17.4529 25.285 17.1264 25.0957Z" fill="#232020"/>
<path d="M31.7227 22.4783C31.4298 22.2372 30.9969 22.2791 30.7557 22.572C30.5705 22.7966 30.3736 23.0171 30.17 23.2271C29.9175 23.5012 29.9296 23.9265 30.1971 24.1859C30.4646 24.4452 30.8901 24.4441 31.1562 24.1832C31.3852 23.9467 31.6075 23.6984 31.8159 23.4452C32.057 23.1524 32.0153 22.7196 31.7227 22.4783Z" fill="#232020"/>
<path d="M33.5981 18.4201C33.2352 18.3096 32.8513 18.5141 32.7407 18.877C32.5352 19.5503 32.264 20.2017 31.9309 20.8219C31.8134 21.0382 31.8207 21.3009 31.95 21.5104C32.0792 21.7199 32.3107 21.8443 32.5567 21.8364C32.8028 21.8285 33.0258 21.6895 33.1414 21.4721C33.5172 20.7724 33.8233 20.0373 34.055 19.2775C34.1656 18.9146 33.961 18.5308 33.5981 18.4201Z" fill="#232020"/>
<path d="M32.8096 26.2124L24.7118 13.1246C24.5866 12.9223 24.3657 12.7991 24.1278 12.7991H24.1235C23.8841 12.8007 23.6628 12.9269 23.5395 13.132L15.6061 26.3204C15.488 26.5167 15.4755 26.759 15.5729 26.9664L19.7475 35.8641L19.7545 36.9772H19.6785C19.4963 36.9784 19.322 37.0519 19.194 37.1816C19.0659 37.3113 18.9947 37.4865 18.9959 37.6687L19.0302 43.1836V43.1851L19.0475 45.942C19.0499 46.3197 19.3568 46.6246 19.7345 46.6246H19.739L28.9317 46.5674C29.1139 46.5662 29.2882 46.4928 29.4162 46.3631C29.5443 46.2334 29.6155 46.0582 29.6144 45.876L29.597 43.1182L29.5797 40.3604L29.5624 37.6027C29.5599 37.225 29.2531 36.9201 28.8754 36.9201H28.8708H28.795L28.788 35.807L32.8506 26.8575C32.9453 26.6491 32.9299 26.4072 32.8096 26.2124ZM24.2013 25.2551H24.2128C25.1806 25.252 25.9678 26.034 25.9709 27.0018C25.9741 27.9697 25.1921 28.7568 24.2242 28.76H24.2128C23.2449 28.763 22.4579 27.9808 22.4549 27.013C22.4519 26.0452 23.2335 25.2581 24.2013 25.2551ZM20.3741 38.3473L28.1929 38.2983L28.2016 39.6819L20.383 39.7312L20.3741 38.3473ZM21.1248 36.3916L27.4176 36.352L27.4213 36.929L21.1285 36.9685L21.1248 36.3916ZM20.392 41.1052L28.2107 41.056L28.2194 42.4398L20.4006 42.489L20.392 41.1052ZM20.4179 45.2467L20.4092 43.863L28.228 43.8138L28.2368 45.1977L20.4179 45.2467ZM27.6568 34.9765L20.8693 35.0191L16.9729 26.7145L23.4564 15.9357L23.5069 23.9615C21.9588 24.3205 20.9264 25.7836 21.1068 27.3624C21.2873 28.9412 22.6233 30.1335 24.2124 30.1339H24.2326C25.8254 30.1242 27.1562 28.9183 27.3224 27.3342C27.4886 25.75 26.437 24.2942 24.8809 23.9541L24.8304 15.9274L31.4487 26.624L27.6568 34.9765Z" fill="#232020"/>
</svg>
