<svg width="129" height="129" viewBox="0 0 129 129" fill="none" xmlns="http://www.w3.org/2000/svg">
<g clip-path="url(#clip0_1_319)">
<path d="M40.0378 104.351C60.0299 116.63 85.3551 102.574 83.7458 78.7659C83.7131 77.5682 83.4375 76.2573 83.2268 75.1244C67.6413 77.1683 49.7553 71.7839 43.909 59.5984C38.6941 48.5941 49.0341 41.0003 59.0213 44.6228C70.8861 48.9731 81.3766 57.8556 86.2516 69.588C95.962 67.4649 104.134 61.6683 105.814 50.7753C108.608 32.4209 89.8773 15.8527 72.7211 15.2427C70.9246 15.2918 70.7295 12.5404 72.526 12.4913C95.3141 10.8502 116.491 35.8013 108.648 58.0091C105.527 66.6046 97.4038 71.9801 87.7582 74.2812C90.918 86.8398 84.982 99.8867 75.128 107.707C63.6879 116.709 49.4932 114.82 38.1453 107.459C36.3158 106.31 38.2737 103.38 40.0378 104.351ZM66.8251 53.8783C62.5515 50.9987 57.1933 47.9089 51.8038 48.0561C46.5926 48.1385 47.3227 55.1303 48.1816 58.0432C49.2995 61.6683 52.9579 63.9655 56.1792 65.6155C62.9938 69.3844 72.754 71.2755 81.7201 70.4309C78.6591 63.6827 72.8148 58.1494 66.8251 53.8783Z" fill="#0071DC"/>
<path d="M27.6705 101.392C32.6549 99.5781 37.947 98.0552 43.207 97.5519C45.3592 97.3733 45.4413 100.367 43.3533 100.724C39.1777 101.438 35.1482 103.106 31.2966 104.709C32.3168 106.958 33.4019 109.386 34.6003 111.57C35.6042 113.221 37.8222 115.438 37.402 117.607C37.1921 118.691 36.302 119.015 35.2822 118.983C32.8221 118.87 31.4614 115.132 30.3927 113.303C28.6923 110.293 27.4132 107.332 26.2468 104.127C25.8583 103.06 26.6024 101.781 27.6705 101.392Z" fill="#0071DC"/>
</g>
<defs>
<clipPath id="clip0_1_319">
<rect width="100" height="100" fill="white" transform="matrix(-0.939693 0.34202 0.34202 0.939693 94.7656 0)"/>
</clipPath>
</defs>
</svg>
