<svg width="58" height="57" viewBox="0 0 58 57" fill="none" xmlns="http://www.w3.org/2000/svg">
<path d="M55.144 22.8117C53.9192 19.8538 52.111 17.138 49.7774 14.8044C45.233 10.26 39.2283 7.7046 32.8211 7.57495C34.8715 10.4476 35.9838 13.7911 36.1509 17.1756C36.8776 17.3598 37.5839 17.5952 38.273 17.8784C40.1393 18.6494 41.8519 19.7889 43.319 21.2594C46.2599 24.2003 47.8805 28.1101 47.8805 32.269C47.8805 36.4279 46.2599 40.3378 43.319 43.2787C40.3781 46.2196 36.4682 47.8402 32.3093 47.8402C28.1504 47.8402 24.2406 46.2196 21.2997 43.2787C19.2561 41.2351 17.9016 38.7582 17.2329 36.1448C13.8451 35.9844 10.4947 34.8824 7.61523 32.8354C7.75853 39.2222 10.3105 45.2029 14.8447 49.7371C19.5085 54.4043 25.711 56.9734 32.3093 56.9734C38.9076 56.9734 45.1101 54.4043 49.774 49.7371C54.4412 45.0733 57.0103 38.8707 57.0103 32.2725C57.0103 28.9699 56.3688 25.7697 55.144 22.8117ZM17.0111 29.4271C17.5638 26.4316 18.9934 23.5726 21.3031 21.2594C23.5514 19.0111 26.3695 17.5338 29.4332 16.964C29.1876 14.4257 28.0924 11.9556 26.1546 10.0178C25.6906 9.55375 25.1925 9.13411 24.6739 8.76906C21.0097 9.95634 17.6525 12 14.8481 14.8044C12.03 17.6225 9.97956 21.0001 8.79569 24.6848C9.16416 25.1999 9.57698 25.6878 10.0307 26.145C11.9754 28.0897 14.4592 29.1848 17.0111 29.4271Z" fill="#FFB41D"/>
<path d="M36.1507 17.1755C34.9122 16.8616 33.6226 16.7013 32.3125 16.7013C31.3367 16.7013 30.3746 16.79 29.433 16.964C29.7537 20.2426 28.6585 23.6373 26.1543 26.1449C23.6569 28.6423 20.2793 29.7375 17.0109 29.427C16.6015 31.6515 16.6765 33.9476 17.2361 36.1413C17.5226 36.1549 17.8058 36.1618 18.0924 36.1618C22.7255 36.1618 27.3587 34.3979 30.8864 30.8736C34.4141 27.3459 36.1746 22.7127 36.1746 18.083C36.1746 17.776 36.1643 17.4757 36.1507 17.1755ZM18.089 6.68102C19.5492 6.68102 21.0094 6.95737 22.3809 7.51348C23.1793 7.8376 23.9503 8.25383 24.6702 8.76559C27.1062 7.97748 29.6752 7.56807 32.3091 7.56807C32.4797 7.56807 32.6502 7.57148 32.8174 7.57489C32.2443 6.77314 31.5994 6.00891 30.8796 5.28903C23.8241 -1.76301 12.3505 -1.76301 5.295 5.28903C1.88327 8.70417 0 13.2486 0 18.0796C0 22.9106 1.88327 27.455 5.29842 30.8702C6.02853 31.6003 6.80299 32.2519 7.61839 32.8319C7.61498 32.6443 7.61157 32.4566 7.61157 32.269C7.61157 29.6556 8.01415 27.1036 8.79203 24.6847C7.42392 22.7673 6.68699 20.4815 6.68699 18.0796C6.68699 15.0329 7.87427 12.1705 10.0271 10.0143C12.2515 7.79324 15.172 6.68102 18.089 6.68102Z" fill="#061E5C"/>
</svg>
