<svg width="15" height="15" viewBox="0 0 15 15" fill="none" xmlns="http://www.w3.org/2000/svg">
<g clip-path="url(#clip0_73_3326)">
<path fill-rule="evenodd" clip-rule="evenodd" d="M1.66667 11.6667C2.58714 11.6667 3.33333 12.4129 3.33333 13.3333C3.33333 14.2538 2.58714 15 1.66667 15C0.746192 15 0 14.2538 0 13.3333C0 12.4129 0.746192 11.6667 1.66667 11.6667ZM7.5 11.6667C8.42047 11.6667 9.16667 12.4129 9.16667 13.3333C9.16667 14.2538 8.42047 15 7.5 15C6.57952 15 5.83333 14.2538 5.83333 13.3333C5.83333 12.4129 6.57952 11.6667 7.5 11.6667ZM13.3333 11.6667C14.2538 11.6667 15 12.4129 15 13.3333C15 14.2538 14.2538 15 13.3333 15C12.4129 15 11.6667 14.2538 11.6667 13.3333C11.6667 12.4129 12.4129 11.6667 13.3333 11.6667ZM1.66667 5.83333C2.58714 5.83333 3.33333 6.57952 3.33333 7.5C3.33333 8.42047 2.58714 9.16667 1.66667 9.16667C0.746192 9.16667 0 8.42047 0 7.5C0 6.57952 0.746192 5.83333 1.66667 5.83333ZM7.5 5.83333C8.42047 5.83333 9.16667 6.57952 9.16667 7.5C9.16667 8.42047 8.42047 9.16667 7.5 9.16667C6.57952 9.16667 5.83333 8.42047 5.83333 7.5C5.83333 6.57952 6.57952 5.83333 7.5 5.83333ZM13.3333 5.83333C14.2538 5.83333 15 6.57952 15 7.5C15 8.42047 14.2538 9.16667 13.3333 9.16667C12.4129 9.16667 11.6667 8.42047 11.6667 7.5C11.6667 6.57952 12.4129 5.83333 13.3333 5.83333ZM1.66667 0C2.58714 0 3.33333 0.746192 3.33333 1.66667C3.33333 2.58714 2.58714 3.33333 1.66667 3.33333C0.746192 3.33333 0 2.58714 0 1.66667C0 0.746192 0.746192 0 1.66667 0ZM7.5 0C8.42047 0 9.16667 0.746192 9.16667 1.66667C9.16667 2.58714 8.42047 3.33333 7.5 3.33333C6.57952 3.33333 5.83333 2.58714 5.83333 1.66667C5.83333 0.746192 6.57952 0 7.5 0ZM13.3333 0C14.2538 0 15 0.746192 15 1.66667C15 2.58714 14.2538 3.33333 13.3333 3.33333C12.4129 3.33333 11.6667 2.58714 11.6667 1.66667C11.6667 0.746192 12.4129 0 13.3333 0Z" fill="#5F636A"/>
</g>
<defs>
<clipPath id="clip0_73_3326">
<rect width="15" height="15" fill="white"/>
</clipPath>
</defs>
</svg>
