<svg width="130" height="32" viewBox="0 0 130 32" fill="none" xmlns="http://www.w3.org/2000/svg">
<path fill-rule="evenodd" clip-rule="evenodd" d="M129.799 25.2639C124.366 34.545 115.763 31.852 113.179 29.7434C112.079 30.4953 110.151 32.1433 107.579 31.953C102.104 31.5479 100.143 23.6624 100.143 23.6624C100.182 23.694 98.5114 24.2433 97.6086 24.2335C97.597 26.546 95.6133 32.07 90.2597 31.9993C84.2522 31.9204 83.0308 22.9014 83.0308 22.9014C83.0308 22.9014 82.433 23.7379 80.1599 24.5712C80.2743 22.7946 80.1907 31.7289 72.9904 31.8602C67.2981 31.9642 65.7615 22.7623 65.7615 22.7623C65.7615 22.7623 64.774 23.796 62.8603 24.1545C62.9819 22.349 62.7842 31.8906 55.583 31.8602C50.7166 31.8399 49.0536 26.1919 49.1829 25.408C49.348 24.409 47.5383 32.0007 42.8112 31.8825C40.8605 31.8247 39.4063 30.4015 38.4937 28.5041C37.272 29.9126 35.4984 31.8825 33.5087 31.8825C29.9371 31.8825 28.3626 28.8722 28.6293 20.2745C28.652 19.2548 28.579 18.8537 27.573 18.7012C26.9692 18.5997 26.3508 18.4075 25.6966 18.3061C25.4868 19.0113 23.7082 31.653 17.5923 31.893C15.5405 31.9735 14.4185 30.1824 13.4972 28.8531C12.0848 30.7359 10.2204 31.953 7.56441 31.953C3.06535 31.953 0 28.2879 0 23.7669C0 19.2457 3.06535 15.581 7.56441 15.581C8.35989 15.581 8.5832 15.6959 9.30992 15.9096C7.8154 2.19775 11.3449 0.0547898 14.4324 0.0547898C17.3966 0.0547898 22.4606 6.9875 15.3351 24.5725C16.9171 29.8177 20.3276 29.521 21.9664 18.7236C22.3 16.5288 21.4081 13.567 22.7953 13.1537C25.3312 12.3982 25.6003 14.6648 26.7892 15.0425C28.0465 15.4416 28.7803 15.4026 29.9872 15.6566C32.0496 16.0625 32.8544 17.1789 32.6031 19.6654C32.3014 22.8116 31.7735 27.3909 33.383 27.949C34.5436 28.3544 36.6626 25.9291 37.0344 24.602C37.4061 23.275 37.4838 22.8208 37.5168 21.8474C37.5671 19.7671 37.6302 18.2422 37.9822 16.6689C38.1329 16.0601 38.3047 15.6569 38.9882 15.6294C39.5506 15.6149 40.5792 15.4443 41.0319 15.7994C41.6354 16.2563 41.56 16.7199 41.4907 17.9402C40.7889 35.3379 46.1907 26.6528 47.8013 19.6987C47.2278 11.8351 47.6216 0.198785 52.5116 0.00362166C55.0548 -0.097874 56.1792 1.95518 56.3028 3.4876C56.6526 7.81571 54.6932 14.9851 52.1163 19.8066C50.6436 29.6444 58.5556 31.5896 59.8209 23.7371C57.7508 22.7453 55.5136 18.7308 57.3341 16.7745C58.3556 15.6765 62.6078 17.2538 62.6775 20.6939C64.7633 20.1318 65.0417 18.9451 65.0707 19.1418C64.4973 11.2782 65.0291 0.198886 69.9195 0.00372213C72.4623 -0.0977735 73.5865 1.95528 73.7102 3.4877C74.06 7.8158 72.1006 14.9852 69.524 19.8067C68.0511 29.6444 75.9633 31.5898 77.2282 23.7372C75.6956 23.4392 72.4603 19.1693 74.327 16.7746C75.3246 15.4949 79.5612 18.1562 80.0355 20.8079C82.0392 20.2365 82.3114 19.0875 82.3401 19.2809C81.7666 11.4176 82.2984 0.338245 87.1888 0.143082C89.7317 0.0415861 90.8558 2.09464 90.9795 3.62706C91.3293 7.95515 89.3699 15.1247 86.793 19.9462C85.3204 29.7841 93.2324 31.7289 94.4977 23.8763C92.3915 23.523 89.3983 19.0145 91.8074 16.7081C92.7699 15.7866 96.4477 18.1787 97.3086 20.9078C98.5048 20.8615 99.2494 20.4457 99.409 20.4038C97.4993 11.1725 98.9209 0.0963157 104.182 0.00385748C107.025 -0.0460673 109.805 1.55287 108.585 10.3352C107.42 18.7146 103.234 22.2311 103.243 22.2849C103.487 23.2887 105.635 31.6899 111.045 27.2572C110.765 26.6182 110.484 25.9654 110.328 25.1746C109.431 20.5681 111.192 15.365 115.979 14.5241C118.722 14.0423 121.305 15.3878 121.714 18.4213C122.386 23.3849 117.938 26.9796 116.247 27.7594C115.489 27.3258 123.114 32.2534 127.639 22.3783C127.901 21.8145 128.217 21.8622 128.627 22.1528C128.917 22.3581 130.565 23.9318 129.799 25.2639ZM10.8371 22.5472C10.6068 21.8536 10.1343 20.3252 9.96725 19.663C9.04706 18.8567 8.39025 18.7257 7.2091 18.7257C4.58421 18.7257 3.03925 21.1712 3.03925 23.8083C3.03925 26.4451 4.72237 28.891 7.34728 28.891C9.62205 28.891 11.3534 27.3325 11.8816 25.1262C11.5119 24.2661 11.1451 23.4756 10.8371 22.5472ZM14.3681 3.68441C12.5237 3.68441 11.898 8.11804 12.0194 11.9004C12.1268 15.2444 13.0541 18.1884 13.5352 19.5075C13.6573 19.6728 13.6346 19.5653 13.7436 19.7406C16.9461 12.6699 15.6178 3.68441 14.3681 3.68441ZM52.775 3.82368C50.3913 3.54818 50.4067 13.5548 50.7026 15.7994C51.9407 13.8036 54.0913 4.36105 52.775 3.82368ZM70.1824 3.82368C67.7986 3.54818 67.814 13.5548 68.1101 15.7994C69.348 13.8036 71.4988 4.36105 70.1824 3.82368ZM87.4519 3.9629C85.0679 3.68741 85.0833 13.6941 85.3794 15.9388C86.6173 13.9428 88.7681 4.50024 87.4519 3.9629ZM104.445 3.23791C100.731 3.98946 101.596 16.468 102.16 18.6565C106.534 12.6015 106.625 3.01047 104.445 3.23791ZM118.364 18.8318C118.175 18.0362 117.231 17.611 116.579 17.7158C114.715 17.9724 112.906 20.3128 113.606 23.876C113.762 24.6696 114.152 25.4001 114.145 25.3758C118.319 22.5543 118.674 20.3309 118.364 18.8318ZM39.7193 12.8751C39.1863 12.8752 38.6653 12.716 38.2221 12.4177C37.7789 12.1194 37.4333 11.6953 37.2293 11.1991C37.0252 10.703 36.9718 10.1569 37.0758 9.63017C37.1797 9.10338 37.4364 8.61949 37.8132 8.23968C38.1901 7.85987 38.6702 7.60122 39.193 7.49642C39.7157 7.39162 40.2576 7.44538 40.75 7.65093C41.2425 7.85646 41.6633 8.20454 41.9594 8.65112C42.2555 9.09771 42.4135 9.62276 42.4135 10.1598C42.4135 10.5164 42.3439 10.8695 42.2084 11.1989C42.0731 11.5283 41.8747 11.8276 41.6245 12.0798C41.3742 12.3319 41.0773 12.5319 40.7504 12.6684C40.4235 12.8049 40.0732 12.8751 39.7193 12.8751Z" fill="#0A0A1B"/>
</svg>
