<svg width="424" height="210" viewBox="0 0 424 210" fill="none" xmlns="http://www.w3.org/2000/svg">
<g clip-path="url(#clip0_1_105)">
<path d="M230.828 96.04L231.978 111.29H219.668L218.328 96.55L230.828 96.04Z" fill="#FFD8BF"/>
<path d="M226.938 39.22L224.498 27.43C223.848 24.81 221.188 23.22 218.568 23.87L204.338 27.42C201.718 28.07 200.128 30.73 200.778 33.35L205.308 47.07L202.108 55.27C201.628 56.5 200.518 57.37 199.208 57.55L196.978 57.84C196.978 57.84 194.988 65.4 205.048 68.92C215.338 72.52 219.078 65.85 219.078 65.85L217.638 64.06C216.858 63.08 216.628 61.77 217.048 60.59L218.518 56.42C220.938 56.52 223.128 56.24 224.478 55.72C229.238 53.87 228.328 44.79 226.938 39.22Z" fill="#FFE3D1"/>
<path d="M198.869 57.03C198.869 57.03 203.739 68.24 217.299 63.53C217.299 63.53 228.999 69.02 232.499 81.82C234.339 88.54 235.769 99.77 235.769 99.77L215.729 100.94C215.729 100.94 206.439 117.29 194.849 136.07L180.289 102.15L184.929 58.6L198.869 57.03Z" fill="#00C1DC"/>
<path d="M213.17 98.71C213.17 98.71 225.69 97 235.43 97.32" stroke="#425370" stroke-miterlimit="10"/>
<path d="M207.969 34.2799C208.209 33.1299 209.039 32.1399 210.239 31.7499C211.259 31.4199 212.209 31.5899 213.019 32.1299" stroke="#F5B690" stroke-miterlimit="10"/>
<path d="M222.46 29.9999C221.59 29.2199 220.33 28.9099 219.13 29.2999C218.01 29.6699 217.32 30.4699 217.04 31.5099C217.04 31.5099 218.9 37.3999 219.96 38.9299C221.63 41.3199 223.73 40.6999 224.21 42.1799C224.69 43.6599 221.32 44.4999 221.32 44.4999L222.19 47.0399C222.19 47.0399 218.38 47.9699 216.52 49.2599" stroke="#F5B690" stroke-miterlimit="10"/>
<path d="M222.398 32.68C222.588 33.27 222.268 33.92 221.678 34.11C221.088 34.3 220.438 33.98 220.248 33.39C220.058 32.8 220.378 32.15 220.968 31.96C221.568 31.76 222.208 32.09 222.398 32.68Z" fill="#695C45"/>
<path d="M214.09 34.1499C214.28 34.7399 213.96 35.3899 213.37 35.5799C212.78 35.7699 212.13 35.4499 211.94 34.8599C211.75 34.2699 212.07 33.6199 212.66 33.4299C213.26 33.2299 213.9 33.5499 214.09 34.1499Z" fill="#695C45"/>
<path d="M203.779 29.96C203.779 29.96 203.619 26.96 200.679 28.71C198.169 30.21 194.959 33.35 197.919 40.2C201.589 48.69 205.309 47.07 205.309 47.07C205.309 47.07 204.249 43.56 204.549 40.58C204.859 37.61 204.709 34.82 203.779 29.96Z" fill="#33302E"/>
<path d="M222.459 49.25L220.879 49.96" stroke="#F5B690" stroke-miterlimit="10"/>
<path d="M215.648 48.0801C215.648 48.0801 216.878 48.9601 217.328 50.4101" stroke="#F5B690" stroke-miterlimit="10"/>
<path d="M207.059 49.25C207.059 49.25 211.029 55.88 218.509 56.41" stroke="#FFC8A6" stroke-miterlimit="10"/>
<path d="M206.038 37.88C206.038 37.88 202.828 34 200.618 36.92C198.678 39.48 201.308 44.15 205.218 45.33L206.038 37.88Z" fill="#FFE3D1"/>
<path d="M201.579 39.17C201.559 38.69 201.929 37.45 202.829 37.41C203.939 37.36 205.599 39.04 205.339 40.01C205.079 40.98 204.099 40.66 203.929 41.19C203.579 42.29 205.399 42.97 205.399 42.97" stroke="#F5B690" stroke-miterlimit="10"/>
<path d="M195.379 57.43C195.379 57.43 200.749 74.58 220.879 65.73" stroke="#425370" stroke-miterlimit="10"/>
<path d="M211.878 83.4301C212.158 81.6901 210.168 80.4601 208.778 81.5401C205.428 84.1301 201.358 89.5301 197.898 94.7001L212.728 106.15C213.268 105.21 213.758 104.37 214.158 103.67C211.098 94.7901 211.158 87.9201 211.878 83.4301Z" fill="white"/>
<g opacity="0.1">
<path d="M47.9596 105.05C45.9596 107.86 45.3996 110.46 45.2696 112.07L43.3196 101.93C44.3296 101.77 47.7296 101.01 50.9196 97.4599C54.7296 93.2299 57.2796 82.6799 57.2796 82.6799C57.2796 82.6799 47.9296 88.1999 44.9996 93.0799C43.4296 95.6999 42.9696 98.0699 42.8796 99.6999L41.0396 90.1399C42.0496 89.9499 45.4096 89.0499 48.4696 85.3899C52.1196 81.0199 54.2796 70.3799 54.2796 70.3799C54.2796 70.3799 45.1396 76.2399 42.3996 81.2299C41.0396 83.6999 40.6196 85.9199 40.5396 87.5399L38.7696 78.3499C39.7696 78.1199 43.0996 77.1099 46.0296 73.3299C49.5196 68.8299 51.2896 58.1199 51.2896 58.1199C51.2896 58.1199 42.3696 64.3099 39.8096 69.3999C38.6496 71.6999 38.2696 73.7699 38.1996 75.3399L35.8596 63.1999C36.5796 61.8399 37.6296 59.1499 37.2696 55.3299C36.7396 49.6599 30.6896 40.6399 30.6896 40.6399C30.6896 40.6399 28.4296 51.2599 30.0396 56.7199C31.1696 60.5299 33.2496 62.6599 34.3996 63.6099L35.7696 70.6899C35.0896 69.5299 34.1096 68.2399 32.6996 66.9899C28.4296 63.2199 17.8496 60.7899 17.8496 60.7899C17.8496 60.7899 23.4696 70.0799 28.3796 72.9599C32.0696 75.1199 35.2396 75.1099 36.5896 74.9699L38.1196 82.9199C37.3896 81.6899 36.2996 80.2899 34.6796 78.9499C30.2796 75.3399 19.6096 73.2899 19.6096 73.2899C19.6096 73.2899 25.5596 82.3699 30.5796 85.0699C34.3496 87.0899 37.5196 86.9699 38.8596 86.7799L40.4696 95.1099C39.6996 93.8199 38.5096 92.3199 36.6696 90.9199C32.1396 87.4699 21.4096 85.8199 21.4096 85.8199C21.4096 85.8199 27.6896 94.6799 32.8096 97.1799C36.6496 99.0599 39.8096 98.8199 41.1496 98.5799L42.8896 107.58C42.0396 106.23 40.6396 104.58 38.3796 103.12C33.5896 100.04 22.7596 99.2399 22.7596 99.2399C22.7596 99.2399 29.7196 107.57 35.0096 109.67C38.9796 111.24 42.1096 110.76 43.4296 110.41L48.7296 138L50.2096 137.71L45.5896 113.74C46.6196 113.66 50.0496 113.16 53.5196 109.88C57.6496 105.97 61.0196 95.6399 61.0196 95.6399C61.0196 95.6399 51.2596 100.41 47.9596 105.05Z" fill="url(#paint0_linear_1_105)"/>
<path d="M90.4697 82.14C88.4797 84.17 87.6897 86.21 87.3697 87.51L87.0897 79C87.9297 79 90.7897 78.82 93.8597 76.34C97.5097 73.39 100.94 65.13 100.94 65.13C100.94 65.13 92.6197 68.42 89.6097 72.02C87.9897 73.95 87.3197 75.82 87.0397 77.13L86.7697 69.11C87.6097 69.08 90.4597 68.79 93.4297 66.2C96.9697 63.12 100.09 54.73 100.09 54.73C100.09 54.73 91.8997 58.33 89.0197 62.03C87.5897 63.87 86.9697 65.62 86.6897 66.92L86.4297 59.21C87.2697 59.15 90.1097 58.75 92.9797 56.06C96.3997 52.85 99.2197 44.36 99.2197 44.36C99.2197 44.36 91.1597 48.25 88.4197 52.06C87.1797 53.79 86.5997 55.41 86.3397 56.68L85.9997 46.51C86.7597 45.5 87.9597 43.44 88.1597 40.29C88.4597 35.61 84.6997 27.49 84.6997 27.49C84.6997 27.49 81.4897 35.84 82.0997 40.49C82.5297 43.74 83.9397 45.74 84.7597 46.66L84.9597 52.6C84.5597 51.57 83.9297 50.39 82.9397 49.19C79.9497 45.57 71.6497 42.23 71.6497 42.23C71.6497 42.23 75.0197 50.52 78.6497 53.49C81.3797 55.72 83.9597 56.12 85.0797 56.19L85.2997 62.86C84.8697 61.76 84.1597 60.48 83.0097 59.19C79.8897 55.68 71.4797 52.64 71.4797 52.64C71.4797 52.64 75.1497 60.8 78.8897 63.64C81.6997 65.77 84.2897 66.08 85.4097 66.1L85.6397 73.09C85.1797 71.94 84.3997 70.57 83.0897 69.19C79.8497 65.8 71.3197 63.07 71.3197 63.07C71.3197 63.07 75.2897 71.09 79.1297 73.79C82.0097 75.82 84.6197 76.03 85.7397 76.01L85.9897 83.56C85.4697 82.35 84.5497 80.83 82.8897 79.35C79.3897 76.23 70.6797 74.18 70.6797 74.18C70.6797 74.18 75.2697 81.86 79.3097 84.25C82.3397 86.04 84.9497 86.05 86.0697 85.94L86.8397 109.07L88.0797 109.03L87.4097 88.92C88.2497 88.99 91.1197 89.02 94.3597 86.8C98.2297 84.15 102.3 76.18 102.3 76.18C102.3 76.18 93.7497 78.79 90.4697 82.14Z" fill="url(#paint1_linear_1_105)"/>
<path d="M0.04 149.17C0.03 148.92 0 148.67 0 148.42C0 137.1 9.18 127.92 20.5 127.92C25.32 127.92 29.75 129.6 33.25 132.38C38.69 123.35 48.59 117.32 59.9 117.32C60.86 117.32 61.81 117.37 62.75 117.46C66.2 100.92 80.85 88.49 98.42 88.49C118.54 88.49 134.86 104.8 134.86 124.93C134.86 124.98 134.86 125.03 134.86 125.08C135.73 124.98 136.61 124.93 137.51 124.93C150.49 124.93 161.01 135.45 161.01 148.43C161.01 148.68 161 148.93 160.99 149.18H0.04V149.17Z" fill="url(#paint2_linear_1_105)"/>
</g>
<g opacity="0.1">
<path d="M394.68 99.4301C391.54 100.87 389.76 102.84 388.84 104.17L392.21 94.4101C393.17 94.7801 396.49 95.8101 401.03 94.3301C406.44 92.5701 413.92 84.6901 413.92 84.6901C413.92 84.6901 403.06 84.8101 398.09 87.5801C395.42 89.0701 393.84 90.8901 392.95 92.2601L396.13 83.0501C397.1 83.3801 400.46 84.2901 404.94 82.6501C410.29 80.6901 417.46 72.5401 417.46 72.5401C417.46 72.5401 406.61 73.0601 401.75 76.0101C399.34 77.4701 397.87 79.1901 396.99 80.5501L400.04 71.7001C401.02 72.0001 404.41 72.7801 408.83 70.9701C414.1 68.8201 420.98 60.4101 420.98 60.4101C420.98 60.4101 410.16 61.3201 405.4 64.4501C403.24 65.8701 401.89 67.4601 401.04 68.7901L405.07 57.1101C406.37 56.2901 408.62 54.4801 410.22 51.0001C412.59 45.8201 411.85 34.9901 411.85 34.9901C411.85 34.9901 404.59 43.0601 403.26 48.6001C402.33 52.4601 403.07 55.3501 403.6 56.7501L401.25 63.5701C401.24 62.2201 401.04 60.6201 400.43 58.8301C398.61 53.4301 390.66 46.0401 390.66 46.0401C390.66 46.0401 390.89 56.9001 393.71 61.8401C395.83 65.5501 398.59 67.1301 399.82 67.6801L397.18 75.3301C397.16 73.9001 396.92 72.1401 396.18 70.1801C394.17 64.8501 385.95 57.7601 385.95 57.7601C385.95 57.7601 386.57 68.6001 389.58 73.4401C391.84 77.0801 394.65 78.5501 395.9 79.0601L393.13 87.0801C393.11 85.5801 392.82 83.6901 391.93 81.5501C389.72 76.3001 381.25 69.5101 381.25 69.5101C381.25 69.5101 382.28 80.3201 385.45 85.0401C387.84 88.5901 390.7 89.9601 391.98 90.4201L389 99.0801C388.93 97.4901 388.55 95.3501 387.32 92.9601C384.71 87.9001 375.73 81.8001 375.73 81.8001C375.73 81.8001 377.6 92.5001 381.14 96.9601C383.8 100.31 386.75 101.45 388.06 101.81L378.9 128.36L380.33 128.85L388.29 105.77C389.22 106.22 392.45 107.5 397.09 106.38C402.63 105.05 410.7 97.7801 410.7 97.7801C410.7 97.7801 399.86 97.0601 394.68 99.4301Z" fill="url(#paint3_linear_1_105)"/>
<path d="M353.64 78.4501C351.34 80.1201 350.22 82.0001 349.69 83.2301L350.83 74.8001C351.66 74.9401 354.51 75.2401 357.94 73.3101C362.03 71.0101 366.79 63.4301 366.79 63.4301C366.79 63.4301 358.04 65.2901 354.47 68.3301C352.55 69.9701 351.58 71.6901 351.08 72.9401L352.15 64.9901C352.99 65.1001 355.85 65.2901 359.2 63.2301C363.2 60.7801 367.68 53.0301 367.68 53.0301C367.68 53.0301 359 55.2101 355.55 58.3901C353.84 59.9601 352.93 61.5901 352.44 62.8301L353.47 55.1801C354.31 55.2601 357.18 55.3401 360.46 53.1701C364.37 50.5801 368.56 42.6701 368.56 42.6701C368.56 42.6701 359.97 45.1601 356.63 48.4601C355.12 49.9601 354.28 51.4701 353.81 52.6701L355.17 42.5801C356.09 41.7101 357.61 39.8801 358.34 36.8101C359.42 32.2401 357.06 23.6101 357.06 23.6101C357.06 23.6101 352.5 31.3101 352.33 36.0001C352.21 39.2701 353.27 41.4801 353.93 42.5301L353.14 48.4201C352.91 47.3301 352.49 46.0701 351.71 44.7201C349.37 40.6501 341.74 35.9701 341.74 35.9701C341.74 35.9701 343.69 44.7001 346.77 48.2401C349.09 50.9001 351.57 51.7201 352.66 51.9701L351.77 58.5801C351.53 57.4301 351.04 56.0501 350.12 54.5801C347.63 50.6001 339.84 46.2001 339.84 46.2001C339.84 46.2001 342.1 54.8601 345.31 58.2801C347.72 60.8501 350.23 61.5901 351.33 61.7901L350.4 68.7201C350.14 67.5101 349.6 66.0301 348.53 64.4501C345.9 60.5701 337.95 56.4601 337.95 56.4601C337.95 56.4601 340.53 65.0301 343.87 68.3301C346.37 70.8101 348.91 71.4501 350.02 71.6201L349.01 79.1101C348.7 77.8301 348.04 76.1701 346.66 74.4401C343.73 70.7801 335.48 67.3001 335.48 67.3001C335.48 67.3001 338.73 75.6401 342.31 78.6701C345 80.9401 347.57 81.3801 348.69 81.4601L345.6 104.4L346.83 104.57L349.52 84.6301C350.34 84.8401 353.16 85.3501 356.73 83.7001C360.99 81.7301 366.33 74.5501 366.33 74.5501C366.33 74.5501 357.43 75.7001 353.64 78.4501Z" fill="url(#paint4_linear_1_105)"/>
<path d="M262.27 147.71C262.26 147.46 262.23 147.21 262.23 146.96C262.23 135.64 271.41 126.46 282.73 126.46C287.55 126.46 291.98 128.14 295.48 130.92C300.92 121.89 310.82 115.86 322.13 115.86C323.09 115.86 324.04 115.91 324.98 116C328.42 99.4601 343.08 87.0301 360.65 87.0301C380.77 87.0301 397.09 103.34 397.09 123.47C397.09 123.52 397.09 123.57 397.09 123.62C397.96 123.52 398.84 123.47 399.74 123.47C412.72 123.47 423.24 133.99 423.24 146.97C423.24 147.22 423.23 147.47 423.22 147.72H262.27V147.71Z" fill="url(#paint5_linear_1_105)"/>
</g>
<path opacity="0.07" d="M190.32 201.72C190.32 163.9 242.73 163.9 242.73 201.72V209.09H262.23V201.72C262.23 139.63 170.81 139.48 170.81 201.72V209.09H190.32V201.72Z" fill="url(#paint6_linear_1_105)"/>
<path opacity="0.07" d="M293.061 195.91H328.351V209.09H347.711V195.91H359.921V176.85H347.711V157.05H328.351V176.85H272.661L270.881 196.8L279.831 209.09H302.701L293.061 195.91Z" fill="url(#paint7_linear_1_105)"/>
<path opacity="0.07" d="M95.77 195.91H131.06V209.09H150.41V195.91H162.62V176.85H150.41V157.05H131.06V176.85H75.37L73.58 196.8L82.54 209.09H105.41L95.77 195.91Z" fill="url(#paint8_linear_1_105)"/>
<path d="M150.41 53.02V118.24H162.62V137.3H150.41V157.1H131.05V137.3H75.37L73.58 117.35L120.48 53.03H150.41V53.02ZM131.06 118.23V69.99L95.77 118.23H131.06Z" fill="url(#paint9_linear_1_105)"/>
<path d="M170.82 46.62C170.82 -15.62 262.24 -15.47 262.24 46.62V112.42C262.24 174.51 170.82 174.66 170.82 112.42V46.62ZM190.32 112.43C190.32 150.25 242.73 150.25 242.73 112.43V46.63C242.73 9.40998 190.32 8.95999 190.32 46.63V112.43Z" fill="url(#paint10_linear_1_105)"/>
<path d="M347.709 53.02V118.24H359.919V137.3H347.709V157.1H328.349V137.3H272.659L270.869 117.35L317.769 53.03H347.709V53.02ZM328.349 118.23V69.99L293.059 118.23H328.349Z" fill="url(#paint11_linear_1_105)"/>
<path d="M227.739 104.39L197.499 90.1299C196.559 89.6899 195.919 88.7799 195.839 87.7399C195.709 86.0499 195.149 83.3099 193.059 80.9899C190.349 77.9799 184.099 75.9399 184.099 75.9399L182.259 82.9499C181.949 84.1399 182.379 85.4099 183.359 86.1499C184.369 86.9299 185.579 88.0799 186.109 89.4799C187.109 92.1299 187.059 96.3199 192.219 97.0399L221.399 116.83C225.119 119.06 229.999 117.42 231.559 113.27C232.859 109.84 231.079 105.97 227.739 104.39Z" fill="#FFE3D1"/>
<path d="M183.398 77.8499C183.398 77.8499 189.148 79.5799 191.488 82.9499" stroke="#FFC8A6" stroke-miterlimit="10"/>
<path d="M182.849 80.2899C182.849 80.2899 187.699 81.4699 189.349 85.2599" stroke="#FFC8A6" stroke-miterlimit="10"/>
<path d="M182.349 82.6099C182.349 82.6099 186.359 83.7299 187.659 87.4099" stroke="#FFC8A6" stroke-miterlimit="10"/>
<path d="M192.46 81.8198L190.68 83.6398" stroke="#FFC8A6" stroke-miterlimit="10"/>
<path d="M197.079 33.03C197.079 33.03 230.939 24.99 235.909 20.83C238.329 18.8 223.309 21.79 223.309 21.79L217.759 9.64001C217.759 9.64001 200.379 9.65001 196.219 18.69C193.929 23.62 197.079 33.03 197.079 33.03Z" fill="#192335"/>
<path d="M206.038 16.6101C204.088 20.2701 207.508 28.2001 207.508 28.2001L223.288 21.8001L217.738 9.65008C217.738 9.64008 208.998 11.0601 206.038 16.6101Z" fill="#425370"/>
</g>
<defs>
<linearGradient id="paint0_linear_1_105" x1="17.8496" y1="89.3199" x2="53.8966" y2="89.3199" gradientUnits="userSpaceOnUse">
<stop stop-color="#0077DC"/>
<stop offset="1" stop-color="#00C0DC"/>
</linearGradient>
<linearGradient id="paint1_linear_1_105" x1="70.6797" y1="68.28" x2="97.0824" y2="68.28" gradientUnits="userSpaceOnUse">
<stop stop-color="#0077DC"/>
<stop offset="1" stop-color="#00C0DC"/>
</linearGradient>
<linearGradient id="paint2_linear_1_105" x1="0" y1="118.835" x2="134.443" y2="118.835" gradientUnits="userSpaceOnUse">
<stop stop-color="#0077DC"/>
<stop offset="1" stop-color="#00C0DC"/>
</linearGradient>
<linearGradient id="paint3_linear_1_105" x1="375.73" y1="81.9201" x2="413.514" y2="81.9201" gradientUnits="userSpaceOnUse">
<stop stop-color="#0077DC"/>
<stop offset="1" stop-color="#00C0DC"/>
</linearGradient>
<linearGradient id="paint4_linear_1_105" x1="335.48" y1="64.0901" x2="363.102" y2="64.0901" gradientUnits="userSpaceOnUse">
<stop stop-color="#0077DC"/>
<stop offset="1" stop-color="#00C0DC"/>
</linearGradient>
<linearGradient id="paint5_linear_1_105" x1="262.23" y1="117.375" x2="396.674" y2="117.375" gradientUnits="userSpaceOnUse">
<stop stop-color="#0077DC"/>
<stop offset="1" stop-color="#00C0DC"/>
</linearGradient>
<linearGradient id="paint6_linear_1_105" x1="217" y1="145" x2="217" y2="209" gradientUnits="userSpaceOnUse">
<stop stop-color="#00C2DC"/>
<stop offset="1" stop-color="#0076DC"/>
</linearGradient>
<linearGradient id="paint7_linear_1_105" x1="315.001" y1="157" x2="315.001" y2="209" gradientUnits="userSpaceOnUse">
<stop stop-color="#00C2DC" stop-opacity="0"/>
<stop offset="1" stop-color="#0075DC"/>
</linearGradient>
<linearGradient id="paint8_linear_1_105" x1="118" y1="140" x2="118" y2="235.5" gradientUnits="userSpaceOnUse">
<stop stop-color="#00C2DC"/>
<stop offset="1" stop-color="#0073DC"/>
</linearGradient>
<linearGradient id="paint9_linear_1_105" x1="73.58" y1="105.06" x2="147.928" y2="105.06" gradientUnits="userSpaceOnUse">
<stop stop-color="#0071DC"/>
<stop offset="1" stop-color="#00C2DC"/>
</linearGradient>
<linearGradient id="paint10_linear_1_105" x1="170.82" y1="79.52" x2="247.156" y2="79.52" gradientUnits="userSpaceOnUse">
<stop stop-color="#0071DC"/>
<stop offset="1" stop-color="#00C2DC"/>
</linearGradient>
<linearGradient id="paint11_linear_1_105" x1="270.869" y1="105.06" x2="345.226" y2="105.06" gradientUnits="userSpaceOnUse">
<stop stop-color="#0071DC"/>
<stop offset="1" stop-color="#00C2DC"/>
</linearGradient>
<clipPath id="clip0_1_105">
<rect width="423.24" height="209.09" fill="white"/>
</clipPath>
</defs>
</svg>
