<svg width="165" height="30" viewBox="0 0 165 30" fill="none" xmlns="http://www.w3.org/2000/svg">
<g clip-path="url(#clip0_84_205)">
<mask id="mask0_84_205" style="mask-type:luminance" maskUnits="userSpaceOnUse" x="0" y="0" width="165" height="30">
<path d="M164.003 0H0.00292969V30H164.003V0Z" fill="white"/>
</mask>
<g mask="url(#mask0_84_205)">
<path d="M10.3923 29.5376H4.21265V14.9776H0.00292969V10.2372H4.21248V6.86399C4.21248 2.86678 6.07437 0 12.2373 0C13.5408 0 15.5872 0.248314 15.5872 0.248314V4.65008H13.4378C11.2478 4.65008 10.3927 5.2797 10.3927 7.02038V10.2372H15.5052L15.0499 14.9776H10.3925L10.3923 29.5376ZM24.5718 9.85833C24.4817 9.85833 24.3891 9.86143 24.2974 9.8636C18.5672 9.8636 15.9455 13.9374 15.9455 19.7202C15.9455 27.005 19.3462 29.9206 24.3422 29.9206C27.2005 29.9206 29.0785 28.7835 30.2199 26.6616V29.5396H36.0977V10.2392H30.2199V13.2073C29.2879 11.2977 27.3575 9.88096 24.5718 9.85833ZM26.0663 14.419C28.473 14.419 29.9175 16.0056 29.9175 18.7043L29.9231 21.4607C29.9231 23.2797 28.73 25.4077 26.0663 25.4077C21.9712 25.4077 22.0806 21.2286 22.0806 19.8366C22.0806 15.1545 24.2625 14.419 26.0663 14.419ZM38.4714 19.8904C38.4714 17.5451 38.3527 9.87088 48.9313 9.87088C53.1778 9.87088 54.951 11.147 54.951 11.147L53.5258 15.3248C53.5258 15.3248 51.7549 14.4032 49.4475 14.4032C46.492 14.4032 44.6062 16.0225 44.6062 18.8716L44.6095 20.9145C44.6095 23.6522 46.429 25.4797 49.4535 25.4797C51.5557 25.4797 53.4932 24.5493 53.4932 24.5493L54.9147 28.6399C54.9147 28.6399 53.2934 29.924 48.961 29.924C38.8885 29.924 38.4714 23.0388 38.4714 19.8904ZM89.4144 9.8636C95.1447 9.8636 97.8078 13.9374 97.8078 19.7202C97.8078 27.005 94.4069 29.9206 89.411 29.9206C86.5526 29.9206 84.4396 28.7837 83.2982 26.6616V29.5396L77.4944 29.5375V0.58684L83.6565 0.0788964V12.9458C84.5459 10.6947 87.4685 9.8636 89.4144 9.8636ZM87.6868 14.419C85.2801 14.419 83.6565 16.0056 83.6565 18.7043L83.6508 21.4607C83.6472 23.2797 84.7752 25.4077 87.6868 25.4077C91.7819 25.4077 91.6725 21.2286 91.6725 19.8366C91.6725 15.1545 89.4908 14.419 87.6868 14.419ZM65.6428 9.87956C59.1435 9.87956 55.7123 13.2287 55.7123 19.1805V20.2863C55.7123 28.0112 60.5307 30 66.2753 30C71.859 30 74.3864 28.5239 74.3864 28.5239L73.2334 24.593C73.2334 24.593 70.2604 25.7886 67.0142 25.7886C63.6489 25.7886 62.2016 24.9779 61.8306 21.9213H74.8791V18.7677C74.8791 12.3116 71.0284 9.87956 65.6428 9.87956ZM65.7994 13.8157C68.0492 13.8157 69.5069 15.1196 69.4269 18.1435H61.8419C61.9734 14.9609 63.5456 13.8157 65.7994 13.8157ZM110.095 9.85306C103.421 9.85306 99.9068 13.4079 99.9068 19.7783C99.9068 28.519 105.964 29.9259 110.106 29.9259C116.17 29.9259 120.204 26.8403 120.204 19.8577C120.204 12.5901 115.668 9.85306 110.095 9.85306ZM110.011 14.4348C112.946 14.4348 114.109 16.5107 114.109 18.8738V20.9054C114.109 23.768 112.481 25.4237 110 25.4237C107.679 25.4237 106.048 23.8749 106.048 20.9054V18.8738C106.048 15.7067 107.989 14.4348 110.011 14.4348ZM132.48 9.85306C125.806 9.85306 122.292 13.4079 122.292 19.7783C122.292 28.519 128.349 29.9259 132.492 29.9259C138.556 29.9259 142.59 26.8403 142.59 19.8577C142.59 12.5901 138.054 9.85306 132.48 9.85306ZM132.397 14.4348C135.331 14.4348 136.494 16.5107 136.494 18.8738V20.9054C136.494 23.768 134.867 25.4237 132.385 25.4237C130.064 25.4237 128.433 23.8749 128.433 20.9054V18.8738C128.433 15.7067 130.374 14.4348 132.397 14.4348ZM144.919 29.5376V0.58684L151.099 0.0788964V19.4835L157.23 10.2372H163.757L157.361 19.8137L164.003 29.5376H157.458L151.099 20.0958V29.5376H144.919Z" fill="#0A0A1B"/>
</g>
</g>
<defs>
<clipPath id="clip0_84_205">
<rect width="165" height="30" fill="white"/>
</clipPath>
</defs>
</svg>
