<svg width="42" height="46" viewBox="0 0 42 46" fill="none" xmlns="http://www.w3.org/2000/svg">
<mask id="mask0_56_117" style="mask-type:luminance" maskUnits="userSpaceOnUse" x="0" y="0" width="42" height="46">
<path d="M42 0H0V45.15H42V0Z" fill="white"/>
</mask>
<g mask="url(#mask0_56_117)">
<path d="M30.7276 42.2462C35.703 42.2462 39.7362 38.2128 39.7362 33.2374C39.7362 28.2621 35.703 24.2286 30.7276 24.2286C25.7522 24.2286 21.7188 28.2618 21.7188 33.2371C21.7242 38.2103 25.7544 42.2406 30.7276 42.2462ZM30.7276 25.3172C33.9311 25.3172 36.819 27.247 38.0448 30.2066C39.2707 33.1662 38.5931 36.5729 36.3279 38.838C34.0626 41.1031 30.656 41.7806 27.6964 40.5547C24.7368 39.3287 22.8072 36.4406 22.8072 33.2371C22.8123 28.865 26.3555 25.322 30.7276 25.3172Z" fill="#232020"/>
<path d="M30.7426 37.8707C30.7367 37.8707 30.731 37.8698 30.7251 37.8698C30.7192 37.8698 30.7135 37.8706 30.7075 37.8707C29.662 37.8602 28.8196 37.0103 28.8183 35.9647C28.8183 35.6641 28.5746 35.4204 28.274 35.4204C28.131 35.4209 27.9941 35.4789 27.8942 35.5812C27.7942 35.6835 27.7396 35.8217 27.7424 35.9647C27.7275 37.4187 28.7723 38.6677 30.2062 38.9097V39.8742C30.2062 40.1748 30.4499 40.4185 30.7504 40.4185C31.051 40.4185 31.2947 40.1748 31.2947 39.8742V38.9097C32.8152 38.6217 33.8662 37.2233 33.7202 35.6828C33.5741 34.1422 32.279 32.9663 30.7315 32.9692C29.9597 32.9715 29.2626 32.5083 28.9657 31.7959C28.6687 31.0834 28.8305 30.2623 29.3755 29.7158C29.9204 29.1692 30.7411 29.005 31.4544 29.2999C32.1677 29.5948 32.6329 30.2905 32.6328 31.0623C32.6328 31.3629 32.8765 31.6066 33.1771 31.6066C33.4801 31.6075 33.7279 31.3653 33.7338 31.0623C33.725 29.6253 32.7049 28.3936 31.2947 28.1173V27.2646C31.2947 26.964 31.051 26.7203 30.7504 26.7203C30.4499 26.7203 30.2062 26.964 30.2062 27.2646V28.1173C28.7723 28.3593 27.7274 29.6082 27.7423 31.0623C27.7413 32.7146 29.0792 34.0553 30.7315 34.0577C31.4126 34.0557 32.0431 34.4173 32.3854 35.0062C32.7277 35.595 32.7298 36.3218 32.3909 36.9127C32.0521 37.5035 31.4238 37.8688 30.7426 37.8707Z" fill="#232020"/>
<path d="M3.07775 12.5819C4.05952 12.5816 4.98216 12.1126 5.56092 11.3195L9.29347 13.9186C8.96637 15.1241 9.40035 16.4078 10.3919 17.1676C11.3834 17.9274 12.7358 18.0126 13.8148 17.3832C14.8938 16.7538 15.4854 15.5346 15.3121 14.2976L19.2254 10.9971C20.237 12.0605 21.859 12.2609 23.0989 11.4756C24.3389 10.6903 24.851 9.13826 24.322 7.76923L27.8928 4.4965C28.5986 5.88673 30.2332 6.52869 31.6965 5.99036C33.1598 5.45202 33.9886 3.90379 33.6252 2.38757C33.2618 0.871348 31.8212 -0.132964 30.2729 0.0505078C28.7245 0.23398 27.5585 1.54717 27.5596 3.10633C27.5596 3.17754 27.5628 3.24793 27.5676 3.31787L23.7424 6.82364C22.7382 5.70065 21.0685 5.47006 19.7976 6.27887C18.5267 7.08767 18.0284 8.69788 18.6205 10.0831L14.9337 13.1924C14.4148 12.2839 13.4695 11.7017 12.4246 11.6472C11.3798 11.5927 10.379 12.0735 9.76844 12.9231L6.04215 10.3287C6.39584 9.05599 5.89781 7.69953 4.80459 6.95808C3.71138 6.21662 2.26691 6.2556 1.21527 7.05494C0.16364 7.85428 -0.260514 9.23562 0.161308 10.4874C0.583129 11.7392 1.75681 12.5821 3.07775 12.5819ZM30.6367 1.11736C31.4412 1.11736 32.1665 1.60189 32.4744 2.34512C32.7822 3.08834 32.6121 3.94385 32.0433 4.51271C31.4744 5.08157 30.6189 5.25175 29.8757 4.9439C29.1325 4.63605 28.6479 3.9108 28.6479 3.10633C28.6491 2.0084 29.5388 1.11866 30.6367 1.11736ZM21.4504 6.88569C22.5489 6.88569 23.4394 7.77618 23.4394 8.87466C23.4394 9.97313 22.5489 10.8636 21.4504 10.8636C20.352 10.8636 19.4615 9.97313 19.4615 8.87466C19.4627 7.7767 20.3525 6.88694 21.4504 6.88569ZM12.264 12.7316C13.0685 12.7316 13.7938 13.2161 14.1017 13.9593C14.4096 14.7026 14.2394 15.5581 13.6706 16.1269C13.1017 16.6958 12.2462 16.866 11.503 16.5581C10.7598 16.2503 10.2752 15.525 10.2752 14.7206C10.2764 13.6226 11.1661 12.7329 12.264 12.7316ZM3.07775 7.51506C4.17621 7.51506 5.06671 8.40553 5.06671 9.50399C5.06671 10.6025 4.17627 11.493 3.07781 11.493C1.97934 11.493 1.08883 10.6026 1.08878 9.50411C1.08998 8.40612 1.97975 7.51631 3.07775 7.51506Z" fill="#232020"/>
<path d="M33.3812 22.8596V9.90045C33.3812 9.59992 33.1792 9.34338 32.8787 9.34338H28.392C28.089 9.34957 27.8469 9.5974 27.8477 9.90045V22.8596H28.9363V10.4319H32.2927V22.8596H33.3812Z" fill="#232020"/>
<path d="M24.2212 25.2183V15.6461C24.2212 15.3455 23.9949 15.0583 23.6943 15.0583H19.2078C18.9073 15.0583 18.6877 15.3455 18.6877 15.6461V28.8902C18.684 29.0276 18.7383 29.1601 18.8373 29.2554C18.9363 29.3507 19.0708 29.3999 19.2078 29.3911H21.0462V28.3025H19.7762V16.1469H23.1326V25.2183H24.2212Z" fill="#232020"/>
<path d="M14.967 21.5897C14.967 21.2891 14.7234 21.0454 14.4228 21.0454H9.97787C9.67727 21.0454 9.43359 21.2891 9.43359 21.5897V28.9374C9.43359 29.238 9.67727 29.4817 9.97787 29.4817H14.4228C14.7234 29.4817 14.967 29.238 14.967 28.9374V21.5897ZM10.5221 22.134H13.9692V28.3024H10.5221V22.134Z" fill="#232020"/>
<path d="M5.80692 16.3283C5.80692 16.0277 5.56324 15.7841 5.26264 15.7841H0.817713C0.517119 15.7841 0.273438 16.0277 0.273438 16.3283V28.8467C0.273438 29.1473 0.517119 29.391 0.817713 29.391H5.26264C5.56324 29.391 5.80692 29.1473 5.80692 28.8467V16.3283ZM4.80908 28.3024H1.36199V16.8726H4.80908V28.3024Z" fill="#232020"/>
<path d="M30.7261 44.4204C35.2522 44.4225 39.3336 41.6973 41.0666 37.5162C42.7997 33.335 41.8428 28.5216 38.6424 25.3211C35.442 22.1207 30.6286 21.1638 26.4474 22.8967C22.2662 24.6296 19.541 28.711 19.543 33.2371C19.5498 39.4106 24.5527 44.4135 30.7261 44.4204ZM21.5097 29.112C22.1033 27.7953 22.97 26.6197 24.0523 25.6632C27.9158 22.2671 33.718 22.3291 37.508 25.8071C41.2981 29.285 41.8573 35.0605 38.8048 39.2009C35.7523 43.3414 30.0698 44.5153 25.6265 41.9233C21.1833 39.3314 19.4081 33.8071 21.5097 29.112Z" fill="#232020"/>
</g>
</svg>
