<svg width="22" height="22" viewBox="0 0 22 22" fill="none" xmlns="http://www.w3.org/2000/svg">
<g clip-path="url(#clip0_73_3274)">
<path d="M2.97084 5.58983C3.54528 5.18833 4.41122 5.26533 4.927 5.69128L4.33545 4.83144C3.85939 4.1525 4.02989 3.41794 4.70945 2.94128C5.389 2.46644 7.31461 3.74305 7.31461 3.74305C6.83428 3.05739 6.92411 2.18839 7.60978 1.70744C8.29544 1.22833 9.24144 1.39394 9.72178 2.08083L16.0896 11.0764L15.278 18.9444L8.50506 16.4743L2.59745 7.71528C2.11284 7.02533 2.28028 6.07383 2.97084 5.58983Z" fill="#EF9645"/>
<path d="M1.64736 10.5942C1.64736 10.5942 0.955581 9.58588 1.96453 8.89472C2.97225 8.20355 3.66341 9.21127 3.66341 9.21127L6.87236 13.8912C6.98297 13.7066 7.10397 13.5245 7.23903 13.3448L2.78525 6.85055C2.78525 6.85055 2.09408 5.84283 3.10241 5.15166C4.11014 4.46049 4.8013 5.46822 4.8013 5.46822L8.99047 11.5775C9.1463 11.4504 9.3058 11.3227 9.47019 11.1974L4.61369 4.11399C4.61369 4.11399 3.92253 3.10627 4.93086 2.4151C5.93858 1.72394 6.62975 2.73166 6.62975 2.73166L11.4862 9.81383C11.6647 9.70444 11.8413 9.60972 12.0185 9.50949L7.47919 2.88994C7.47919 2.88994 6.78803 1.88222 7.79575 1.19105C8.80347 0.499882 9.49464 1.5076 9.49464 1.5076L14.2943 8.50727L15.024 9.57183C12.0002 11.6459 11.7124 15.5479 13.44 18.0675C13.7852 18.5717 14.2894 18.2264 14.2894 18.2264C12.2159 15.202 12.849 11.8036 15.8734 9.7301L14.9818 5.26777C14.9818 5.26777 14.6487 4.09199 15.8239 3.75833C16.9997 3.42527 17.3334 4.60105 17.3334 4.60105L18.3631 7.65905C18.7713 8.87149 19.2058 10.0797 19.7809 11.2224C21.4046 14.4491 20.4348 18.4592 17.3731 20.5596C14.0334 22.8494 9.46775 21.9982 7.1773 18.659L1.64736 10.5942Z" fill="#FFDC5D"/>
<path d="M7.33307 19.5812C4.88862 19.5812 2.41851 17.1111 2.41851 14.6667C2.41851 14.3287 2.17101 14.0556 1.83307 14.0556C1.49512 14.0556 1.19629 14.3287 1.19629 14.6667C1.19629 18.3333 3.6664 20.8034 7.33307 20.8034C7.67101 20.8034 7.94418 20.5046 7.94418 20.1667C7.94418 19.8287 7.67101 19.5812 7.33307 19.5812Z" fill="#5DADEC"/>
<path d="M4.27778 20.7778C2.44444 20.7778 1.22222 19.5555 1.22222 17.7222C1.22222 17.3843 0.949056 17.1111 0.611111 17.1111C0.273167 17.1111 0 17.3843 0 17.7222C0 20.1667 1.83333 22 4.27778 22C4.61572 22 4.88889 21.7268 4.88889 21.3889C4.88889 21.0509 4.61572 20.7778 4.27778 20.7778ZM14.6667 1.22221C14.3293 1.22221 14.0556 1.49599 14.0556 1.83332C14.0556 2.17066 14.3293 2.44444 14.6667 2.44444C17.1111 2.44444 19.5556 4.63771 19.5556 7.33333C19.5556 7.67066 19.8293 7.94444 20.1667 7.94444C20.504 7.94444 20.7778 7.67066 20.7778 7.33333C20.7778 3.96366 18.3333 1.22221 14.6667 1.22221Z" fill="#5DADEC"/>
<path d="M17.7224 0.0256653C17.3851 0.0256653 17.1113 0.273776 17.1113 0.61111C17.1113 0.948443 17.3851 1.24789 17.7224 1.24789C19.5558 1.24789 20.7523 2.60761 20.7523 4.27778C20.7523 4.61511 21.0512 4.88889 21.3891 4.88889C21.7271 4.88889 21.9746 4.61511 21.9746 4.27778C21.9746 1.93294 20.1669 0.0256653 17.7224 0.0256653Z" fill="#5DADEC"/>
</g>
<defs>
<clipPath id="clip0_73_3274">
<rect width="22" height="22" fill="white"/>
</clipPath>
</defs>
</svg>
