<svg width="45" height="36" viewBox="0 0 45 36" fill="none" xmlns="http://www.w3.org/2000/svg">
<g clip-path="url(#clip0_56_84)">
<mask id="mask0_56_84" style="mask-type:luminance" maskUnits="userSpaceOnUse" x="0" y="0" width="45" height="36">
<path d="M45 0H0V36H45V0Z" fill="white"/>
</mask>
<g mask="url(#mask0_56_84)">
<path d="M36.5411 13.0293C36.9517 13.0118 37.3422 12.8662 37.644 12.618C37.6642 12.6017 37.684 12.5845 37.702 12.5692C37.7222 12.5516 37.7418 12.5338 37.7601 12.5164C38.0622 12.2357 38.238 11.8662 38.2543 11.478C38.317 11.482 38.3797 11.4845 38.4425 11.4845C39.4709 11.4838 40.4093 10.9633 40.862 10.1425C41.1879 9.54705 41.0693 8.83485 40.5635 8.34873C40.3469 8.1402 40.2226 7.93233 40.2226 7.77852C40.2226 7.63827 40.3567 7.42396 40.5813 7.20505C41.0751 6.71937 41.1887 6.01614 40.8686 5.42656C40.3819 4.55461 39.3562 4.02552 38.263 4.08254C38.2481 3.69314 38.0725 3.32224 37.7697 3.04053C37.7509 3.02237 37.7309 3.00455 37.7124 2.9884C37.6938 2.97225 37.6729 2.95493 37.6523 2.93819C37.3487 2.68801 36.955 2.54188 36.5414 2.52589C36.594 1.56251 35.9997 0.662915 35.0276 0.234339C34.3643 -0.0502252 33.5732 0.0507588 33.0268 0.489737C32.7805 0.689318 32.5393 0.808565 32.3817 0.808565C32.2087 0.808565 31.9749 0.698105 31.7403 0.505553C31.1932 0.0560803 30.3921 -0.0492553 29.7221 0.240197C28.7497 0.663965 28.1569 1.56392 28.2172 2.52513C27.7943 2.54209 27.3927 2.69524 27.0875 2.95601C27.0677 2.97275 27.0482 2.98949 27.031 3.00564C27.0117 3.02304 26.9933 3.0407 26.9737 3.05944C26.6835 3.3392 26.5158 3.70212 26.501 4.08237C25.4077 4.02537 24.3819 4.55434 23.8948 5.42622C23.5747 6.01585 23.6883 6.7191 24.1822 7.2048C24.4069 7.42363 24.541 7.63794 24.541 7.77819C24.541 7.932 24.4167 8.13986 24.2 8.3484C23.6942 8.83456 23.5756 9.54673 23.9013 10.1423C24.354 10.9631 25.2924 11.4836 26.3208 11.4842C26.3773 11.4842 26.4349 11.482 26.4921 11.4788C26.5085 11.8574 26.6763 12.2185 26.9653 12.4971C26.9833 12.5145 27.0014 12.5316 27.0202 12.5486C27.0389 12.5657 27.0589 12.583 27.079 12.5999C27.3864 12.862 27.7913 13.0149 28.2169 13.0296C28.1556 13.9915 28.7485 14.8925 29.7218 15.3166C30.3919 15.6065 31.1936 15.5011 31.7405 15.0511C31.9751 14.8586 32.2089 14.7481 32.3819 14.7481C32.5396 14.7481 32.7807 14.8673 33.027 15.067C33.3604 15.3352 33.7943 15.4835 34.244 15.4827C34.5156 15.4831 34.7838 15.4283 35.0279 15.3225C36.0002 14.8934 36.5943 13.9931 36.5411 13.0293ZM37.9489 5.32438C38.6198 5.10811 39.3666 5.37357 39.6847 5.94145C39.7698 6.09872 39.7392 6.2861 39.6075 6.41543C39.1411 6.87007 38.9045 7.32857 38.9045 7.77844C38.9045 8.23652 39.1432 8.70848 39.5952 9.14354C39.732 9.27192 39.7661 9.4617 39.6814 9.62162C39.367 10.1913 38.6175 10.4559 37.9491 10.233L36.6282 9.64723L36.6174 9.64296L34.7895 8.83057C34.8746 8.67777 34.9409 8.51726 34.9872 8.35183L35.7487 8.34455C35.9825 8.34774 36.2 8.23832 36.3173 8.05849C36.4346 7.87866 36.4333 7.65651 36.314 7.47772C36.1947 7.29893 35.976 7.19143 35.7423 7.19668H35.735L34.9819 7.19208C34.936 7.03333 34.8721 6.87913 34.7912 6.73183L36.628 5.91333L36.6296 5.91442L36.7421 5.86053L37.9489 5.32438ZM35.65 4.54965L35.6534 4.55124L35.9123 4.10212C35.9217 4.08539 35.9302 4.06923 35.9377 4.05233C36.0094 3.88222 36.169 3.75327 36.3663 3.70597C36.5086 3.67476 36.6589 3.71142 36.7633 3.80279C36.7711 3.80923 36.779 3.81576 36.7882 3.8238C36.7955 3.83016 36.8025 3.83651 36.8101 3.84371C36.9232 3.94566 36.9701 4.09176 36.9347 4.23141C36.8901 4.40608 36.7526 4.5505 36.5662 4.61844C36.5493 4.62488 36.5328 4.63191 36.5167 4.63953L36.137 4.81844L35.2865 5.19601L35.65 4.54965ZM30.3081 1.28949C30.4881 1.21411 30.7016 1.24453 30.8461 1.36614C31.3356 1.76781 31.8664 1.98003 32.3817 1.98003C32.8876 1.98003 33.4035 1.76982 33.915 1.35526C34.0605 1.2381 34.2713 1.21091 34.4483 1.28647C35.0873 1.56918 35.3862 2.23294 35.143 2.82949L33.5658 5.63643C33.3924 5.56051 33.2102 5.50159 33.0225 5.4607L33.0189 4.77802C33.0181 4.45352 32.7249 4.18944 32.3599 4.18446H32.3567C31.9902 4.19056 31.6977 4.45784 31.7008 4.78363L31.7044 5.46321C31.5293 5.50473 31.3594 5.56201 31.1974 5.63417L30.273 3.99032L30.278 3.98865L30.1768 3.81986L29.6204 2.82932C29.3695 2.23521 29.6671 1.56887 30.3081 1.28949ZM33.7491 7.7781C33.7492 8.26978 33.416 8.71307 32.905 8.90127C32.394 9.08946 31.8058 8.98549 31.4146 8.63784C31.0235 8.29018 30.9065 7.76732 31.1182 7.31308C31.3298 6.85883 31.8285 6.56267 32.3817 6.56271C33.1365 6.56345 33.7482 7.10715 33.7491 7.7781ZM27.9466 3.8494C27.9538 3.84246 27.9612 3.83543 27.9702 3.82723C27.9779 3.82028 27.9856 3.81359 27.993 3.80731C28.0951 3.71439 28.2442 3.67539 28.3865 3.70438C28.5847 3.74894 28.7465 3.87573 28.8211 4.04488C28.829 4.06162 28.8378 4.07836 28.8475 4.09417L29.0024 4.35292L29.4762 5.19626L28.7618 4.87911L28.7648 4.874L28.2552 4.64237C28.2388 4.63495 28.2222 4.62815 28.2052 4.62195C28.0177 4.55653 27.8777 4.41399 27.8302 4.23995C27.7918 4.10063 27.8357 3.95355 27.9466 3.8494ZM26.8142 10.2312C26.1464 10.4547 25.3968 10.1909 25.082 9.6217C24.9972 9.46175 25.0314 9.27197 25.1681 9.14354C25.62 8.7084 25.8589 8.2366 25.8589 7.77844C25.8589 7.32857 25.6223 6.87007 25.156 6.41543C25.024 6.28618 24.9934 6.09871 25.0786 5.94145C25.3967 5.37345 26.1434 5.1078 26.8146 5.32388L29.9723 6.72589C29.8871 6.87904 29.8208 7.03995 29.7746 7.2058L29.0149 7.212C28.7784 7.20742 28.5578 7.3173 28.4387 7.49896C28.3195 7.68062 28.3207 7.90544 28.4418 8.0861C28.5628 8.26676 28.7846 8.37479 29.0211 8.36823H29.0272L29.7819 8.36965C29.8277 8.52744 29.8915 8.68067 29.9722 8.82697L26.8142 10.2312ZM29.1075 11.0171L29.1057 11.0163L28.8388 11.462C28.8294 11.478 28.82 11.4944 28.8124 11.5113C28.7378 11.6804 28.5761 11.8072 28.378 11.8517C28.2358 11.8805 28.087 11.8416 27.9848 11.7491C27.977 11.7425 27.9693 11.7358 27.9616 11.7288C27.9539 11.7219 27.9457 11.7141 27.9389 11.7076C27.8274 11.6033 27.7832 11.4559 27.8215 11.3162C27.8691 11.1421 28.0091 10.9995 28.1968 10.9341C28.2136 10.9279 28.2304 10.921 28.2466 10.9137L28.7561 10.682L28.7555 10.6807L29.4764 10.3606L29.1075 11.0171ZM34.4479 14.2705C34.2709 14.3462 34.06 14.319 33.9146 14.2016C33.403 13.7871 32.8872 13.5768 32.3813 13.5768C31.8659 13.5768 31.3349 13.7892 30.8456 14.1908C30.7011 14.3124 30.4876 14.3427 30.3076 14.2674C29.6668 13.9879 29.3692 13.3217 29.6199 12.7276L31.1973 9.92062C31.3705 9.99654 31.5526 10.0555 31.7403 10.0963L31.7439 10.7834C31.7444 11.1087 32.037 11.3742 32.4029 11.3812H32.4062C32.7737 11.3732 33.0657 11.1044 33.062 10.7777L33.0584 10.0961C33.2335 10.0541 33.4034 9.9965 33.5654 9.92405L34.4743 11.5399H34.4715L34.6097 11.779L34.7447 12.0192C34.7659 12.0603 34.7882 12.1005 34.8125 12.1397L35.1427 12.7272C35.3857 13.3237 35.0867 13.9876 34.4479 14.2705ZM36.0287 10.6903L36.5075 10.9163C36.5238 10.924 36.5403 10.931 36.5571 10.9374C36.7436 11.0053 36.8811 11.1498 36.9256 11.3245C36.9611 11.4645 36.9138 11.6109 36.8002 11.7129C36.7934 11.7193 36.7865 11.7256 36.7776 11.7333C36.7688 11.741 36.7621 11.7466 36.7548 11.7526C36.6503 11.8443 36.4998 11.8811 36.3573 11.8498C36.1936 11.8117 36.0548 11.7154 35.9734 11.5835L35.9329 11.5117C35.9317 11.5089 35.93 11.5063 35.9287 11.5033C35.9211 11.4862 35.9127 11.4694 35.9032 11.4531L35.7911 11.2587L35.2859 10.3597L36.0287 10.6903Z" fill="#232020"/>
<path d="M7.96323 7.27713L7.44263 6.8963C7.09269 6.64015 6.64259 6.51811 6.1914 6.55703C5.74021 6.59596 5.32491 6.79265 5.03692 7.10383L0.397393 12.1141C0.109286 12.4252 -0.0279775 12.8252 0.015809 13.2263C0.0595956 13.6273 0.280844 13.9964 0.630866 14.2524L1.15148 14.6335C1.45595 14.8575 1.83886 14.98 2.23411 14.9798C2.28991 14.9798 2.34598 14.9774 2.40234 14.9725C2.8134 14.9376 3.19598 14.7705 3.4783 14.5027L10.5483 20.5529L11.4624 19.7088L4.32285 13.5989L7.43086 10.2427L24.0856 20.6104L24.8418 19.6508L8.26618 9.33228C8.78774 8.68275 8.65545 7.78529 7.96323 7.27713ZM7.17912 8.67102L2.53941 13.6814C2.40212 13.8295 2.15577 13.8508 1.98897 13.7289L1.46845 13.348C1.30197 13.2259 1.27806 13.007 1.41498 12.8586L6.05459 7.84826C6.1203 7.77687 6.21544 7.73184 6.31876 7.72324C6.33152 7.72207 6.34434 7.72148 6.35717 7.72148C6.44768 7.72148 6.53535 7.74956 6.60504 7.8009L7.12565 8.18165C7.29218 8.30379 7.3161 8.52268 7.17912 8.67102Z" fill="#232020"/>
<path d="M14.7841 8.88296C15.0045 9.84129 15.4632 11.8353 18.0612 12.2258C18.0828 12.229 18.1043 12.2312 18.1262 12.2326L20.5378 12.3792C20.5529 12.3801 20.5679 12.3805 20.5829 12.3805C20.8356 12.3805 21.066 12.2519 21.176 12.0497L22.2277 10.1151C22.2357 10.1005 22.2429 10.0855 22.2496 10.0704C23.1943 7.88547 21.4604 6.53593 20.627 5.8874L20.5375 5.81761C19.3075 4.85526 15.3513 2.5889 15.1836 2.49284C14.9755 2.37382 14.7099 2.36843 14.496 2.4789C14.282 2.58936 14.1557 2.79706 14.1689 3.01668C14.1795 3.19384 14.4332 7.37125 14.7644 8.79794L14.7841 8.88296ZM19.6666 6.69685L19.7589 6.76882C20.7416 7.53367 21.5778 8.32823 21.0288 9.62832L20.5307 10.544L18.2871 7.11032C18.1043 6.83058 17.701 6.73553 17.3863 6.89802C17.0716 7.06052 16.9646 7.41903 17.1475 7.69878L19.3928 11.1353L18.2501 11.0659C16.6992 10.8201 16.3361 9.78221 16.0755 8.6484L16.0553 8.56137C15.8471 7.66388 15.6633 5.47543 15.5637 4.11309C16.8455 4.86497 18.8934 6.09133 19.6666 6.69685Z" fill="#232020"/>
<path d="M44.0975 14.1378C43.9109 14.2005 39.51 15.6835 38.0818 16.3972L37.9971 16.4395C37.0404 16.9152 35.0498 17.905 35.4053 20.2102C35.4547 20.5307 35.787 20.7549 36.1476 20.711C36.5082 20.6671 36.7605 20.3717 36.7111 20.0512C36.4954 18.6537 37.5008 18.0289 38.641 17.4622L38.7282 17.4188C39.6269 16.9701 41.917 16.1502 43.347 15.6523C42.9328 16.9584 42.2455 19.0475 41.8297 19.8974C41.7331 20.0898 41.7601 20.3135 41.9005 20.4833C42.0409 20.653 42.2731 20.7427 42.5085 20.7181C42.7439 20.6934 42.9463 20.5583 43.0385 20.3642C43.6986 19.0138 44.9167 15.0086 44.9684 14.8387C45.0329 14.6263 44.958 14.3998 44.7747 14.2521C44.5913 14.1044 44.3303 14.0604 44.0989 14.1383L44.0975 14.1378Z" fill="#232020"/>
<path d="M39.9821 18.0816L38.2943 19.737C38.1321 19.8915 38.0762 20.1116 38.1478 20.3131C38.2195 20.5146 38.4076 20.6661 38.6402 20.7097C38.8728 20.7533 39.1138 20.6822 39.2708 20.5236L40.9586 18.8682C41.1208 18.7137 41.1767 18.4935 41.1051 18.2921C41.0334 18.0906 40.8453 17.939 40.6127 17.8954C40.3801 17.8518 40.1391 17.923 39.9821 18.0816Z" fill="#232020"/>
<path d="M43.9704 19.5815H8.77365C8.4096 19.5815 8.09375 19.8066 8.09375 20.1302V22.6976C8.0956 27.3346 12.0371 31.2215 17.2256 31.7028V34.6559C17.2181 34.8067 17.2807 34.9536 17.3987 35.0621C17.5167 35.1707 17.6796 35.2314 17.8495 35.2304H34.8946C35.2618 35.2374 35.5681 34.9821 35.5833 34.6559V31.7028C40.667 31.2069 44.621 27.3579 44.621 22.6976V20.1302C44.621 19.8066 44.3343 19.5815 43.9704 19.5815ZM18.5436 34.0585V31.7991H34.2653V34.0585H18.5436ZM43.303 22.6976C43.303 27.0472 39.3302 30.6276 34.4371 30.6276H18.3068C13.4136 30.6276 9.41174 27.0472 9.41174 22.6976V20.7531H43.303V22.6976Z" fill="#232020"/>
</g>
</g>
<defs>
<clipPath id="clip0_56_84">
<rect width="45" height="36" fill="white"/>
</clipPath>
</defs>
</svg>
