<svg width="43" height="39" viewBox="0 0 43 39" fill="none" xmlns="http://www.w3.org/2000/svg">
<path d="M43 4.77322V33.1774C42.9972 35.8091 40.8646 37.9417 38.2335 37.9439H4.76651C2.13542 37.9417 0.0028523 35.8091 0 33.1774V4.77322C0.0028523 2.14213 2.13542 0.00956623 4.76651 0.00671387H38.2335C40.8646 0.00956623 42.9972 2.14213 43 4.77322ZM41.5802 33.1774V11.3744H1.41981V33.1774C1.42171 35.025 2.91885 36.5225 4.76651 36.5241H38.2335C40.0811 36.5225 41.5783 35.025 41.5802 33.1774ZM41.5802 9.95458V4.77322C41.5783 2.92557 40.0811 1.42874 38.2335 1.42653H4.76651C2.91885 1.42874 1.42171 2.92557 1.41981 4.77322V9.95458H41.5802Z" fill="#232020"/>
<path d="M31.0884 22.4429L26.4943 18.5314C26.1952 18.288 25.7565 18.3286 25.5062 18.6221C25.2561 18.9159 25.2865 19.3558 25.5749 19.6125L29.533 22.9832L25.5749 26.3547C25.375 26.5169 25.2786 26.7746 25.3233 27.0281C25.3677 27.282 25.5461 27.4915 25.7892 27.5758C26.0326 27.6604 26.3023 27.6068 26.4943 27.4357L31.0884 23.5239C31.2469 23.3889 31.3385 23.1918 31.3385 22.9832C31.3385 22.7753 31.2469 22.5776 31.0884 22.4429Z" fill="#232020"/>
<path d="M22.883 15.5407C22.4996 15.4598 22.1234 15.7055 22.0426 16.0889L19.1795 29.683C19.0987 30.0661 19.344 30.4423 19.7274 30.5238C19.7756 30.5336 19.8247 30.5387 19.8745 30.5387C20.2098 30.5384 20.4995 30.3035 20.5689 29.9749L23.4316 16.3814C23.5118 15.998 23.2665 15.6215 22.883 15.5407Z" fill="#232020"/>
<path d="M19.0242 7.99851H19.0315C20.269 7.99787 21.2734 6.99703 21.2775 5.75882V5.75185C21.2762 4.51426 20.2751 3.51089 19.0375 3.5055H19.0315C17.7907 3.5036 16.7832 4.50793 16.7813 5.74836C16.7794 6.98911 17.7837 7.99629 19.0242 7.99851ZM19.0317 4.61615H19.0343C19.6605 4.61703 20.168 5.12649 20.1667 5.75353C20.1662 6.38056 19.6579 6.88829 19.0317 6.88785H19.0273C18.4012 6.88655 17.8941 6.37708 17.895 5.75004C17.8963 5.12257 18.4051 4.61529 19.0317 4.61615Z" fill="#232020"/>
<path d="M11.6641 22.9832C11.6641 23.1911 11.7554 23.3889 11.9138 23.5239L16.5079 27.4357C16.8071 27.6788 17.2457 27.6385 17.4961 27.3444C17.7461 27.0509 17.7157 26.6114 17.4273 26.3547L13.4693 22.9832L17.4273 19.6125C17.7157 19.3558 17.7461 18.9159 17.4961 18.6221C17.2457 18.3286 16.8071 18.288 16.5079 18.5314L11.9138 22.4429C11.7554 22.5779 11.6641 22.7753 11.6641 22.9832Z" fill="#232020"/>
<path d="M9.88282 5.72363C9.88092 6.96374 10.8824 7.97155 12.1222 7.97694H12.1292C13.3664 7.97567 14.3704 6.97515 14.3755 5.73789V5.73091C14.3752 4.4927 13.374 3.48869 12.1365 3.48425H12.1292C10.8913 3.48457 9.88726 4.48604 9.88282 5.72363ZM11.3295 4.92532C11.541 4.71278 11.8286 4.59345 12.1288 4.59473H12.1328C12.7598 4.59563 13.2672 5.10519 13.2659 5.73234C13.2646 6.36036 12.7554 6.86775 12.1288 6.86645H12.1258C11.6667 6.86557 11.2534 6.58771 11.0793 6.16264C10.9048 5.73757 11.0036 5.24848 11.3295 4.92532Z" fill="#232020"/>
<path d="M5.23414 3.46205C3.99339 3.45795 2.98399 4.4607 2.98048 5.70176C2.97639 6.94251 3.97913 7.95159 5.21988 7.95572H5.22685C6.46823 7.95761 7.47573 6.95329 7.47764 5.71254C7.47953 4.47147 6.47521 3.46398 5.23414 3.46205ZM5.22667 6.84474H5.2232C4.59673 6.84343 4.09018 6.33416 4.09147 5.70693C4.09235 5.07971 4.60064 4.57174 5.22667 4.57304H5.23102C5.85748 4.57392 6.36404 5.08319 6.36318 5.71085C6.36187 6.33808 5.85314 6.84561 5.22667 6.84474Z" fill="#232020"/>
</svg>
