<svg width="100" height="100" viewBox="0 0 100 100" fill="none" xmlns="http://www.w3.org/2000/svg">
<path d="M89.9997 0H9.99996C4.47948 0.00546873 0.00546873 4.47948 0 9.99996V83.3331C0.00546873 88.8536 4.47948 93.3276 9.99996 93.333H71.078L75.8946 98.1514C76.5091 98.766 77.2439 99.2471 78.053 99.5644C78.8621 99.8817 79.728 100.028 80.5964 99.9954C81.4649 99.9624 82.3172 99.7503 83.0998 99.3725C83.8825 98.9946 84.5786 98.4591 85.1446 97.7996C86.1975 96.56 86.718 94.9546 86.5928 93.333H89.9997C95.5201 93.3276 99.9941 88.8536 99.9996 83.3331V9.99996C99.9941 4.47948 95.5201 0.00546873 89.9997 0ZM9.99996 3.33339H89.9997C93.6815 3.33339 96.6662 6.31814 96.6662 9.99996V19.9999H3.33339V9.99996C3.33339 6.31814 6.31814 3.33339 9.99996 3.33339ZM64.3814 79.5247C65.0347 78.9696 65.673 78.3964 66.2781 77.788L69.7781 81.288C69.0566 81.7622 68.44 82.3794 67.9663 83.1012L64.3814 79.5247ZM44.9998 83.3331C30.2723 83.3331 18.3333 71.3941 18.3333 56.6666C18.3333 41.9391 30.2723 29.9999 44.9998 29.9999C59.7273 29.9999 71.6663 41.9389 71.6663 56.6664C71.6489 71.3868 59.7201 83.3155 44.9998 83.3331ZM82.618 95.6246C82.3447 95.926 82.014 96.1697 81.6452 96.3415C81.2765 96.5134 80.8771 96.6099 80.4706 96.6254C80.0641 96.641 79.6585 96.5752 79.2777 96.432C78.8969 96.2888 78.5486 96.071 78.253 95.7914L71.128 88.6665C70.0312 87.4948 70.0615 85.6645 71.1962 84.5296C72.331 83.3948 74.1614 83.3645 75.3331 84.4614L82.2798 91.408C83.4524 92.5211 83.5983 94.3389 82.618 95.6246ZM89.9997 89.9997H85.428C85.1945 89.6604 84.9306 89.343 84.6397 89.0514L77.6931 82.1048C76.5685 80.9839 75.0601 80.3322 73.4732 80.2815L68.4831 75.2815C78.1413 63.0253 76.7427 45.401 65.2722 34.8215C53.8017 24.2421 36.1221 24.2696 24.6851 34.8852C13.248 45.5008 11.9044 63.1293 21.6009 75.3552C31.2973 87.5811 48.7688 90.2875 61.7097 81.5684L66.9447 86.8034C66.981 87.9406 67.3267 89.0463 67.9447 90.0016H9.99996C6.31814 90.0016 3.33339 87.0169 3.33339 83.335V23.3333H96.6664V83.3331C96.6662 87.0149 93.6815 89.9997 89.9997 89.9997Z" fill="#232020"/>
<path d="M11.668 16.6665C14.4293 16.6665 16.6679 14.4278 16.6679 11.6665C16.6679 8.90517 14.4293 6.6665 11.668 6.6665C8.90663 6.6665 6.66797 8.90517 6.66797 11.6665C6.66797 14.4278 8.90663 16.6665 11.668 16.6665ZM11.668 9.99989C11.8868 9.99989 12.1035 10.043 12.3057 10.1268C12.5079 10.2105 12.6917 10.3333 12.8464 10.488C13.0012 10.6428 13.1239 10.8265 13.2077 11.0287C13.2914 11.2309 13.3345 11.4476 13.3345 11.6665C13.3345 11.8853 13.2914 12.1021 13.2077 12.3043C13.1239 12.5065 13.0012 12.6902 12.8464 12.8449C12.6917 12.9997 12.5079 13.1225 12.3057 13.2062C12.1035 13.29 11.8868 13.3331 11.668 13.3331C11.2259 13.3331 10.802 13.1575 10.4895 12.8449C10.1769 12.5324 10.0014 12.1085 10.0014 11.6665C10.0014 11.2245 10.1769 10.8006 10.4895 10.488C10.802 10.1755 11.2259 9.99989 11.668 9.99989ZM25.0013 16.6665C27.7628 16.6665 30.0013 14.4278 30.0013 11.6665C30.0013 8.90517 27.7626 6.6665 25.0013 6.6665C22.24 6.6665 20.0013 8.90517 20.0013 11.6665C20.0013 14.4278 22.24 16.6665 25.0013 16.6665ZM25.0013 9.99989C25.2202 9.99989 25.4369 10.043 25.6391 10.1268C25.8413 10.2105 26.025 10.3333 26.1798 10.488C26.3345 10.6428 26.4573 10.8265 26.541 11.0287C26.6248 11.2309 26.6679 11.4476 26.6679 11.6665C26.6679 11.8853 26.6248 12.1021 26.541 12.3043C26.4573 12.5065 26.3345 12.6902 26.1798 12.8449C26.025 12.9997 25.8413 13.1225 25.6391 13.2062C25.4369 13.29 25.2202 13.3331 25.0013 13.3331C24.5593 13.3331 24.1354 13.1575 23.8228 12.8449C23.5103 12.5324 23.3347 12.1085 23.3347 11.6665C23.3347 11.2245 23.5103 10.8006 23.8228 10.488C24.1354 10.1755 24.5593 9.99989 25.0013 9.99989ZM38.3346 16.6665C41.096 16.6665 43.3346 14.4278 43.3346 11.6665C43.3346 8.90517 41.096 6.6665 38.3346 6.6665C35.5733 6.6665 33.3347 8.90517 33.3347 11.6665C33.3347 14.4278 35.5731 16.6665 38.3346 16.6665ZM38.3346 9.99989C38.5535 9.99989 38.7702 10.043 38.9724 10.1268C39.1746 10.2105 39.3583 10.3333 39.5131 10.488C39.6679 10.6428 39.7906 10.8265 39.8744 11.0287C39.9581 11.2309 40.0012 11.4476 40.0012 11.6665C40.0012 11.8853 39.9581 12.1021 39.8744 12.3043C39.7906 12.5065 39.6679 12.6902 39.5131 12.8449C39.3583 12.9997 39.1746 13.1225 38.9724 13.2062C38.7702 13.29 38.5535 13.3331 38.3346 13.3331C37.8926 13.3331 37.4687 13.1575 37.1562 12.8449C36.8436 12.5324 36.6681 12.1085 36.6681 11.6665C36.6681 11.2245 36.8436 10.8006 37.1562 10.488C37.4687 10.1755 37.8926 9.99989 38.3346 9.99989ZM71.6677 16.6665H88.3343C91.0956 16.6665 93.3342 14.4278 93.3342 11.6665C93.3342 8.90517 91.0956 6.6665 88.3343 6.6665H71.6677C68.9064 6.6665 66.6677 8.90517 66.6677 11.6665C66.6677 14.4278 68.9064 16.6665 71.6677 16.6665ZM71.6677 9.99989H88.3343C88.7763 9.99989 89.2002 10.1755 89.5127 10.488C89.8253 10.8006 90.0009 11.2245 90.0009 11.6665C90.0009 12.1085 89.8253 12.5324 89.5127 12.8449C89.2002 13.1575 88.7763 13.3331 88.3343 13.3331H71.6677C71.2257 13.3331 70.8018 13.1575 70.4893 12.8449C70.1767 12.5324 70.0011 12.1085 70.0011 11.6665C70.0011 11.2245 70.1767 10.8006 70.4893 10.488C70.8018 10.1755 71.2257 9.99989 71.6677 9.99989ZM45.0012 36.6664C45.4432 36.6664 45.8671 36.4908 46.1797 36.1783C46.4922 35.8657 46.6678 35.4418 46.6678 34.9998C46.6678 34.5578 46.4922 34.1339 46.1797 33.8213C45.8671 33.5088 45.4432 33.3332 45.0012 33.3332C41.4561 33.3257 37.9564 34.1304 34.7706 35.6856C31.5848 37.2407 28.7977 39.5051 26.623 42.3048C26.4859 42.4769 26.3843 42.6744 26.324 42.8859C26.2636 43.0974 26.2457 43.3188 26.2714 43.5373C26.297 43.7557 26.3656 43.967 26.4732 44.1588C26.5808 44.3506 26.7254 44.5193 26.8985 44.655C27.0716 44.7907 27.2698 44.8908 27.4818 44.9495C27.6938 45.0082 27.9153 45.0244 28.1335 44.9971C28.3518 44.9698 28.5625 44.8996 28.7535 44.7905C28.9445 44.6814 29.112 44.5356 29.2464 44.3615C31.1106 41.961 33.4998 40.0193 36.2307 38.6854C38.9617 37.3516 41.9619 36.6609 45.0012 36.6664ZM33.3347 48.3331C32.8927 48.3331 32.4688 48.5087 32.1562 48.8213C31.8437 49.1338 31.6681 49.5577 31.6681 49.9997V59.9997C31.6681 60.9202 30.9218 61.6663 30.0015 61.6663C29.5639 61.673 29.1465 61.8515 28.8394 62.1633C28.5323 62.4752 28.3602 62.8952 28.3602 63.3329C28.3602 63.7705 28.5323 64.1906 28.8394 64.5024C29.1465 64.8142 29.5639 64.9928 30.0015 64.9995C32.7628 64.9995 35.0015 62.7608 35.0015 59.9995V49.9997C35.0014 49.5577 34.8258 49.1338 34.5132 48.8213C34.2006 48.5087 33.7767 48.3331 33.3347 48.3331ZM43.3346 48.3331C40.5731 48.3331 38.3346 50.5718 38.3346 53.3331V59.9997C38.3346 62.761 40.5733 64.9997 43.3346 64.9997C46.0959 64.9997 48.3346 62.761 48.3346 59.9997V53.3331C48.3346 50.5716 46.0959 48.3331 43.3346 48.3331ZM45.0012 59.9997C45.0012 60.4417 44.8256 60.8656 44.5131 61.1782C44.2005 61.4907 43.7766 61.6663 43.3346 61.6663C42.8926 61.6663 42.4687 61.4907 42.1562 61.1782C41.8436 60.8656 41.668 60.4417 41.668 59.9997V53.3331C41.668 52.8911 41.8436 52.4672 42.1562 52.1547C42.4687 51.8421 42.8926 51.6665 43.3346 51.6665C43.7766 51.6665 44.2005 51.8421 44.5131 52.1547C44.8256 52.4672 45.0012 52.8911 45.0012 53.3331V59.9997ZM56.6678 48.3331H53.3344C52.8924 48.3331 52.4685 48.5087 52.1559 48.8213C51.8434 49.1338 51.6678 49.5577 51.6678 49.9997V63.3331C51.6678 63.7751 51.8434 64.199 52.1559 64.5115C52.4685 64.8241 52.8924 64.9997 53.3344 64.9997H56.6678C57.6348 65.0039 58.5821 64.7265 59.394 64.2012C60.2059 63.6759 60.8473 62.9255 61.2397 62.0416C61.6321 61.1578 61.7586 60.1788 61.6038 59.2243C61.4489 58.2697 61.0195 57.381 60.3678 56.6665C61.0194 55.952 61.4489 55.0632 61.6037 54.1087C61.7586 53.1541 61.632 52.1752 61.2396 51.2913C60.8472 50.4075 60.2059 49.6571 59.394 49.1318C58.5821 48.6064 57.6348 48.3289 56.6678 48.3331ZM55.0012 51.6663H56.6678C57.1098 51.6663 57.5337 51.8419 57.8462 52.1545C58.1588 52.467 58.3344 52.8909 58.3344 53.3329C58.3344 53.7749 58.1588 54.1988 57.8462 54.5114C57.5337 54.8239 57.1098 54.9995 56.6678 54.9995H55.0012V51.6663ZM56.6678 61.6663H55.0012V58.3329H56.6678C57.5883 58.3329 58.3344 59.079 58.3344 59.9995C58.3344 60.92 57.5883 61.6663 56.6678 61.6663Z" fill="#232020"/>
<path d="M24.9986 49.9998C25.9191 49.9998 26.6652 49.2537 26.6652 48.3332C26.6652 47.4128 25.9191 46.6666 24.9986 46.6666C24.0782 46.6666 23.332 47.4128 23.332 48.3332C23.332 49.2537 24.0782 49.9998 24.9986 49.9998Z" fill="#232020"/>
</svg>
