<svg width="161" height="38" viewBox="0 0 161 38" fill="none" xmlns="http://www.w3.org/2000/svg">
<g clip-path="url(#clip0_84_198)">
<mask id="mask0_84_198" style="mask-type:luminance" maskUnits="userSpaceOnUse" x="0" y="0" width="161" height="38">
<path d="M160.003 0H0.00292969V38H160.003V0Z" fill="white"/>
</mask>
<g mask="url(#mask0_84_198)">
<path d="M157.767 35.5763C157.769 35.5763 157.771 35.5763 157.774 35.5763C158.168 35.5763 158.492 35.2608 158.492 34.8776C158.492 34.8641 158.492 34.8507 158.49 34.8372C158.49 34.3132 158.166 34.0627 157.499 34.0627H156.422V36.807H156.828V35.6107H157.325L157.336 35.6252L158.109 36.807H158.542L157.712 35.5839L157.767 35.5763ZM157.298 35.3014H156.828V34.3738H157.424C157.731 34.3738 158.081 34.4225 158.081 34.8146C158.081 35.2654 157.728 35.3014 157.296 35.3014M0.00292969 5.56997H5.98028V26.7693H17.0466V32.1402H0.00292969V5.56997ZM19.6893 14.1248H25.4317V32.1302H19.6893V14.1248ZM22.5604 5.17334C24.3876 5.17368 25.8911 6.63765 25.8911 8.41673C25.8911 10.196 24.3873 11.6601 22.5599 11.6601C20.7325 11.6601 19.2287 10.196 19.2287 8.41673C19.2287 6.63748 20.733 5.17334 22.5604 5.17334C22.5606 5.17334 22.5602 5.17334 22.5604 5.17334ZM49.4529 5.56591H55.1954V21.4449L61.7035 14.1167H68.744L61.2071 22.4525L68.5854 32.1378H61.3679L55.272 23.2375H55.1966V32.1366H49.4541L49.4529 5.56591ZM28.6158 14.1266H34.1303V16.5872H34.2086C35.3293 14.7177 37.4242 13.5972 39.646 13.6787C45.4692 13.6787 46.541 17.409 46.541 22.2551V32.129H40.7986V23.3751C40.7986 21.2855 40.7592 18.5994 37.8078 18.5994C34.823 18.5994 34.3624 20.8748 34.3624 23.223V32.1268H28.6199L28.6158 14.1266Z" fill="#0A0A1B"/>
<path d="M80.8246 21.047C80.8251 21.0207 80.8254 20.9942 80.8254 20.9679C80.8254 19.1289 79.2712 17.6156 77.3824 17.6156C77.3545 17.6156 77.3268 17.616 77.2989 17.6167C75.2248 17.4909 73.4043 19.0298 73.241 21.047H80.8246ZM85.6889 29.0258C83.7576 31.306 80.8714 32.6226 77.8361 32.6083C72.0936 32.6083 67.4961 28.8761 67.4961 23.097C67.4961 17.3179 72.0931 13.5876 77.8361 13.5876C83.2034 13.5876 86.5693 17.3149 86.5693 23.097V24.8501H73.241C73.5825 26.8963 75.4399 28.4008 77.5686 28.3556C79.2277 28.3455 80.7727 27.5159 81.6667 26.1552L85.6889 29.0258ZM98.5387 18.4908C95.6676 18.4908 93.9449 20.3574 93.9449 23.0773C93.9449 25.7971 95.6669 27.6653 98.5387 27.6653C101.411 27.6653 103.137 25.8017 103.137 23.0773C103.137 20.3527 101.414 18.4908 98.5387 18.4908ZM108.423 32.1406H103.137V29.7527H103.059C101.715 31.5119 99.601 32.5618 97.3496 32.5878C91.8321 32.5878 88.1975 28.7107 88.1975 23.228C88.1975 18.1927 91.414 13.5689 96.7011 13.5689C99.0777 13.5689 101.298 14.202 102.6 15.9567H102.675V5.57781H108.423V32.1406ZM147.19 32.151H141.448V23.3952C141.448 21.3073 141.41 18.6195 138.461 18.6195C135.47 18.6195 135.013 20.8943 135.013 23.2432V32.1504H129.27V14.1449H134.783V16.6055H134.86C135.983 14.737 138.077 13.6168 140.299 13.6972C146.12 13.6972 147.193 17.4244 147.193 22.2735L147.19 32.151ZM122.791 11.6836C120.963 11.6836 119.458 10.2192 119.458 8.43925C119.458 6.65933 120.962 5.19468 122.79 5.19468C124.618 5.19468 126.122 6.65899 126.123 8.43857C126.123 8.43823 126.123 8.43874 126.123 8.43857C126.123 10.2181 124.619 11.6835 122.791 11.6836ZM125.662 32.151H119.914V14.1449H125.662V32.151ZM150.053 0.00260318H117.028C115.478 -0.0144433 114.187 1.2129 114.168 2.72227V35.0099C114.187 36.5202 115.477 37.7489 117.028 37.7327H150.053C151.608 37.7517 152.903 36.5232 152.924 35.0099V2.72008C152.903 1.2075 151.606 -0.0196766 150.053 0.000239026M157.335 32.854C155.895 32.8675 154.718 34.0246 154.718 35.4268C154.718 36.8385 155.91 38 157.36 38C158.81 38 160.003 36.8385 160.003 35.4268C160.003 34.0246 158.826 32.8675 157.386 32.854H157.335ZM157.335 37.7053C157.321 37.7055 157.309 37.7056 157.295 37.7056C156.025 37.7056 154.979 36.6873 154.979 35.4494C154.979 34.2118 156.025 33.1932 157.295 33.1932C158.552 33.1932 159.592 34.1885 159.613 35.4118V35.4498C159.639 36.6604 158.639 37.678 157.396 37.7041H157.335" fill="#0A0A1B"/>
</g>
</g>
<defs>
<clipPath id="clip0_84_198">
<rect width="161" height="38" fill="white"/>
</clipPath>
</defs>
</svg>
