<svg width="45" height="32" viewBox="0 0 45 32" fill="none" xmlns="http://www.w3.org/2000/svg">
<path d="M3.39548 19.6829V30.0366C3.39548 30.3566 3.65488 30.616 3.97488 30.616C7.00775 30.6126 9.46553 28.1549 9.46893 25.122V20.3573C11.7162 20.8358 13.9022 21.5667 15.9853 22.5362L28.1803 28.2272C28.3597 28.3109 28.5695 28.2972 28.7365 28.1908C28.9035 28.0845 29.0047 27.9002 29.0047 27.7022V19.6345C31.7447 19.2822 33.7967 16.9495 33.7967 14.1868C33.7967 11.4242 31.7447 9.09153 29.0047 8.73919V0.67154C29.0047 0.473526 28.9035 0.289229 28.7365 0.18286C28.5695 0.0764904 28.3597 0.0627808 28.1803 0.146508L15.9853 5.83756C11.9532 7.712 7.56138 8.68632 3.11486 8.69284C1.43851 8.69475 0.0800408 10.0532 0.078125 11.7296V16.6442C0.0800408 18.3206 1.43851 19.679 3.11486 19.681C3.20833 19.681 3.3019 19.682 3.39548 19.6829ZM32.6373 14.1869C32.6346 16.3091 31.0981 18.1184 29.0044 18.4648V9.90929C31.098 10.2557 32.6345 12.0648 32.6373 14.1869ZM8.31013 25.122C8.30748 27.2914 6.70387 29.1259 4.55428 29.4186V19.7164C5.81363 19.7775 7.06798 19.9165 8.31013 20.1328V25.122ZM27.8455 26.7926L24.9506 25.441V2.93274L27.8464 1.58081L27.8455 26.7926ZM16.4753 6.88762L23.7918 3.47351V24.9003L16.4753 21.4861C14.2379 20.4448 11.8865 19.6685 9.46893 19.1731V9.20049C11.8865 8.70508 14.2379 7.92886 16.4753 6.88762ZM1.23693 16.6442V11.7296C1.2381 10.6929 2.07819 9.85281 3.11486 9.85164C4.85565 9.85063 6.59336 9.70529 8.31013 9.41709V18.9579C6.59336 18.6697 4.85565 18.5243 3.11486 18.5233C2.07774 18.5221 1.23746 17.6813 1.23693 16.6442Z" fill="#232020"/>
<path d="M39.7728 14.1874C39.7772 10.0891 37.329 6.38583 33.5565 4.78435C33.262 4.65902 32.9217 4.79612 32.7964 5.09056C32.6711 5.38501 32.8081 5.72531 33.1026 5.85064C36.4447 7.27315 38.6141 10.5542 38.6141 14.1865C38.6141 17.8187 36.4447 21.0998 33.1026 22.5223C32.9121 22.6033 32.7794 22.7799 32.7543 22.9854C32.7293 23.1909 32.8158 23.3941 32.9813 23.5185C33.1467 23.6429 33.366 23.6696 33.5565 23.5886C37.3286 21.9877 39.7768 18.2852 39.7728 14.1874Z" fill="#232020"/>
<path d="M35.6307 0.138355C35.3363 0.0130246 34.996 0.150121 34.8706 0.444568C34.7453 0.739015 34.8824 1.07931 35.1768 1.20464C40.3815 3.42011 43.7599 8.5299 43.7599 14.1865C43.7599 19.8431 40.3815 24.9529 35.1768 27.1684C34.8824 27.2937 34.7453 27.634 34.8706 27.9285C34.996 28.2229 35.3363 28.36 35.6307 28.2347C41.263 25.8373 44.9189 20.3078 44.9189 14.1865C44.9189 8.06526 41.263 2.53575 35.6307 0.138355Z" fill="#232020"/>
</svg>
