<svg width="43" height="43" viewBox="0 0 43 43" fill="none" xmlns="http://www.w3.org/2000/svg">
<g clip-path="url(#clip0_56_106)">
<mask id="mask0_56_106" style="mask-type:luminance" maskUnits="userSpaceOnUse" x="0" y="0" width="43" height="43">
<path d="M43 0H0V43H43V0Z" fill="white"/>
</mask>
<g mask="url(#mask0_56_106)">
<path d="M29.9973 10.131H2.98141C1.36591 10.1327 0.0564464 11.4422 0.0546875 13.0577V40.0736C0.0564464 41.6891 1.36591 42.9986 2.98141 43.0003H29.9973C31.6128 42.9986 32.9222 41.6891 32.924 40.0736V13.0577C32.9222 11.4422 31.6128 10.1327 29.9973 10.131ZM31.5732 40.0736C31.5723 40.9438 30.8674 41.6486 29.9973 41.6495H2.98141C2.11122 41.6486 1.40636 40.9438 1.40549 40.0736V13.0577C1.40636 12.1875 2.11122 11.4827 2.98141 11.4818H29.9973C30.8674 11.4827 31.5723 12.1875 31.5732 13.0577V40.0736Z" fill="#232020"/>
<path d="M3.42969 7.42943C3.42969 7.8023 3.73222 8.10482 4.10509 8.10482H31.121C31.4939 8.10482 31.7964 7.8023 31.7964 7.42943C31.7964 7.05655 31.4939 6.75403 31.121 6.75403H4.10509C3.73222 6.75403 3.42969 7.05655 3.42969 7.42943Z" fill="#232020"/>
<path d="M4.55859 4.05235C4.55859 4.42523 4.86111 4.72775 5.23399 4.72775H29.9985C30.3714 4.72775 30.6739 4.42523 30.6739 4.05235C30.6739 3.67947 30.3714 3.37695 29.9985 3.37695H5.23399C4.86111 3.37695 4.55859 3.67947 4.55859 4.05235Z" fill="#232020"/>
<path d="M5.68359 0.675397C5.68359 1.04827 5.98611 1.35079 6.35899 1.35079H28.8722C29.2451 1.35079 29.5476 1.04827 29.5476 0.675397C29.5476 0.302522 29.2451 0 28.8722 0H6.35899C5.98611 0 5.68359 0.302522 5.68359 0.675397Z" fill="#232020"/>
<path d="M25.0222 22.8659V19.6076C25.0222 19.0791 24.7848 18.5787 24.3758 18.2445C23.9669 17.9099 23.4296 17.7766 22.9116 17.8817L14.3394 19.6177C13.5198 19.7861 12.9301 20.5068 12.9279 21.3436V27.9331C11.7315 27.0941 10.1169 27.1821 9.01849 28.145C7.91965 29.108 7.62108 30.6976 8.29604 31.9934C8.97056 33.2892 10.4436 33.9567 11.8625 33.6089C13.2819 33.2611 14.2796 31.989 14.2787 30.5278V25.5894L23.671 23.6872V29.502C22.4371 28.6503 20.7759 28.7756 19.6841 29.8032C18.5923 30.8304 18.3659 32.481 19.1411 33.7641C19.9163 35.0476 21.4825 35.6153 22.9002 35.1268C24.3178 34.6387 25.2016 33.2263 25.0218 31.7379L25.0222 22.8659ZM11.1067 32.3491C10.1006 32.3491 9.28539 31.5335 9.28539 30.5278C9.28539 29.5218 10.101 28.7065 11.1067 28.7065C12.1127 28.7065 12.9279 29.5222 12.9279 30.5278C12.9266 31.5335 12.1118 32.3478 11.1067 32.3491ZM14.2787 24.2114V21.3436C14.2792 21.1488 14.4168 20.9808 14.6076 20.9417L23.1794 19.2057C23.2999 19.1811 23.4252 19.2123 23.5206 19.2901C23.6156 19.3679 23.671 19.4845 23.671 19.6076V22.3092L14.2787 24.2114ZM21.8726 33.9343C20.9021 33.9352 20.1014 33.1749 20.0517 32.2058C20.0025 31.2366 20.7214 30.3986 21.687 30.3009C22.6526 30.2029 23.5254 30.8792 23.6714 31.8386V31.9094H23.6824C23.7422 32.4252 23.5786 32.9414 23.2326 33.3284C22.8865 33.7153 22.3914 33.936 21.8726 33.9343Z" fill="#232020"/>
</g>
</g>
<defs>
<clipPath id="clip0_56_106">
<rect width="43" height="43" fill="white"/>
</clipPath>
</defs>
</svg>
