<svg width="58" height="58" viewBox="0 0 58 58" fill="none" xmlns="http://www.w3.org/2000/svg">
<path d="M22.343 20.1655L26.1471 23.9413C27.451 25.2395 29.56 25.2395 30.8639 23.9413L33.9877 20.8402L34.6453 20.1429L52.923 1.86518C53.6146 1.17354 53.1271 0 52.152 0H45.7287C43.6651 0 41.6808 0.822042 40.2238 2.27904L28.5055 14.0031L24.6334 10.131C23.2048 8.7023 21.2659 7.89727 19.2476 7.89727H10.1201L22.3657 20.1429L22.343 20.1655Z" fill="white"/>
<path d="M34.6622 36.8444L30.8638 33.0687C29.5542 31.7704 27.4452 31.7704 26.1413 33.0687L23.0175 36.1697L22.3599 36.8671L4.07658 55.1447C3.3906 55.8307 3.87816 57.0042 4.8476 57.0042H11.3446C13.3685 57.0042 15.3074 56.1992 16.736 54.7706L28.5054 43.0012L32.3265 46.8223C33.7891 48.2849 35.7734 49.107 37.8426 49.107H46.8908L34.6452 36.8614L34.6622 36.8444Z" fill="white"/>
<path d="M14.0031 28.5051L10.1593 32.3489C8.71364 33.7945 7.89727 35.7618 7.89727 37.8084V46.8905L20.1429 34.6449L20.1655 34.6676L23.9526 30.8522C25.2508 29.5426 25.2508 27.428 23.9413 26.124L1.84818 4.06498C1.1622 3.38467 0 3.86655 0 4.83032V11.2876C0 13.3625 0.805034 15.3071 2.27337 16.7754L14.0031 28.5051Z" fill="white"/>
<path d="M54.7648 40.2575L43.0691 28.5051L46.9526 24.6047C48.3585 23.193 49.1466 21.2768 49.1466 19.2869V10.1084L36.952 22.3597L36.9293 22.337L33.199 26.1127C31.912 27.411 31.9064 29.5029 33.1819 30.8125L36.935 34.6676L36.9577 34.6449L55.2013 52.9736C55.8703 53.6426 57.0098 53.172 57.0098 52.2253V45.6886C57.0041 43.6364 56.2104 41.7088 54.7648 40.2575Z" fill="white"/>
</svg>
