<svg width="43" height="35" viewBox="0 0 43 35" fill="none" xmlns="http://www.w3.org/2000/svg">
<path d="M39.8589 4.47885H36.0229C35.1074 4.48178 34.2972 3.88708 34.0255 3.01284L33.7813 2.23526C33.3737 0.924164 32.1586 0.0322715 30.7856 0.0363912H24.8586C23.4857 0.0323099 22.2706 0.924195 21.863 2.23526L21.6188 3.01284C21.3471 3.88708 20.5369 4.48178 19.6214 4.47885H14.0326V3.58623C14.0314 2.52697 13.173 1.66857 12.1138 1.66737H7.92711C6.86785 1.66857 6.00945 2.52697 6.00825 3.58623V4.47885H3.22589C1.49254 4.48077 0.0878602 5.88546 0.0859375 7.61881V30.2963C0.0879082 32.0296 1.49256 33.4343 3.22589 33.4363H39.8588C41.5921 33.4343 42.9968 32.0296 42.9988 30.2963V7.61881C42.9968 5.88551 41.5922 4.48087 39.8589 4.47885ZM7.05499 3.58623C7.05556 3.10476 7.44573 2.7146 7.9272 2.71402H12.1139C12.5954 2.71455 12.9855 3.10474 12.9861 3.58623V4.47885H7.05499V3.58623ZM41.9522 30.2963C41.9509 31.4518 41.0144 32.3883 39.8589 32.3896H3.22598C2.07042 32.3883 1.13397 31.4519 1.13267 30.2963V7.61881C1.13397 6.46325 2.07042 5.5268 3.22598 5.52551H19.6217C20.9947 5.5296 22.2098 4.63764 22.6174 3.32649L22.8616 2.549C23.1333 1.67479 23.9435 1.08013 24.859 1.08305H30.7863C31.7017 1.08012 32.512 1.67474 32.7837 2.54891L33.0279 3.32657C33.4355 4.63766 34.6505 5.52957 36.0235 5.52551H39.8595C41.0151 5.5268 41.9515 6.46325 41.9528 7.61881L41.9522 30.2963Z" fill="#232020"/>
<path d="M31.0704 2.36511H24.7896C24.4765 2.36511 24.2227 2.61894 24.2227 2.93205V4.97163C24.2227 5.28474 24.4765 5.53856 24.7896 5.53856H31.0704C31.3835 5.53856 31.6373 5.28474 31.6373 4.97163V2.93179C31.6372 2.61878 31.3834 2.36511 31.0704 2.36511ZM30.5907 4.49139H25.2702V3.41177H30.5907V4.49139Z" fill="#232020"/>
<path d="M24.3973 6.81421C17.8566 6.81421 12.5352 12.1355 12.5352 18.6763C12.5352 25.2171 17.8566 30.5383 24.3973 30.5383C30.938 30.5383 36.2593 25.217 36.2593 18.6763C36.2593 12.1356 30.938 6.81421 24.3973 6.81421ZM24.3973 29.4917C18.4241 29.4917 13.5819 24.6495 13.5819 18.6763C13.5819 12.7031 18.4241 7.86086 24.3973 7.86086C30.3705 7.86086 35.2127 12.7031 35.2127 18.6763C35.206 24.6467 30.3677 29.485 24.3973 29.4917Z" fill="#232020"/>
<path d="M24.3982 9.00891C20.4881 9.00891 16.963 11.3643 15.4666 14.9767C13.9703 18.5892 14.7974 22.7473 17.5622 25.5122C20.3271 28.2771 24.4853 29.1042 28.0977 27.6078C31.7102 26.1115 34.0656 22.5864 34.0656 18.6762C34.0595 13.3396 29.7348 9.01497 24.3982 9.00891ZM24.3982 27.297C20.9114 27.297 17.768 25.1967 16.4336 21.9753C15.0993 18.754 15.8368 15.046 18.3023 12.5805C20.7678 10.1149 24.4758 9.37736 27.6971 10.7117C30.9185 12.046 33.0189 15.1895 33.0189 18.6762C33.0135 23.4351 29.1571 27.2915 24.3982 27.297Z" fill="#232020"/>
<path d="M11.4857 9.11829H4.9673C4.58211 9.11872 4.26996 9.43087 4.26953 9.81605V12.2582C4.26996 12.6434 4.58211 12.9556 4.9673 12.956H11.4857C11.8709 12.9556 12.1831 12.6434 12.1835 12.2582V9.81605C12.1831 9.43087 11.8709 9.11872 11.4857 9.11829ZM8.52478 11.9094H5.31618V10.1649H8.5247L8.52478 11.9094ZM11.1369 11.9094H9.57135V10.1649H11.1369V11.9094Z" fill="#232020"/>
<path d="M30.33 17.0204L25.4188 17.9506L27.9046 13.6137C27.9747 13.4914 27.9925 13.346 27.9541 13.2105C27.9156 13.0749 27.824 12.9606 27.7002 12.8934L27.4379 12.751C27.4342 12.749 27.4304 12.747 27.4266 12.7451C26.4902 12.2646 25.4524 12.0155 24.4 12.0186C21.6042 12.0211 19.1083 13.7717 18.1539 16.3995C17.1994 19.0274 17.9901 21.9716 20.1327 23.7677C22.2752 25.5639 25.3123 25.8285 27.7332 24.43C30.1541 23.0315 31.4421 20.2684 30.9565 17.5151L30.942 17.438C30.9164 17.3015 30.8375 17.1807 30.7228 17.1024C30.608 17.0241 30.4665 16.9946 30.33 17.0204ZM24.3996 24.2872C21.3008 24.2872 18.7887 21.7751 18.7887 18.6762C18.7887 15.5774 21.3008 13.0652 24.3996 13.0652C25.2018 13.0628 25.995 13.2343 26.7245 13.5679L23.9457 18.416C23.8441 18.5933 23.855 18.8133 23.9734 18.9797C24.0919 19.1461 24.2963 19.2283 24.497 19.1904L29.9862 18.1506C30.0025 18.3251 30.0106 18.5006 30.0106 18.6761C30.0073 21.7736 27.4971 24.2838 24.3996 24.2872Z" fill="#232020"/>
</svg>
