<svg width="171" height="40" viewBox="0 0 171 40" fill="none" xmlns="http://www.w3.org/2000/svg">
<g clip-path="url(#clip0_84_192)">
<mask id="mask0_84_192" style="mask-type:luminance" maskUnits="userSpaceOnUse" x="0" y="0" width="171" height="40">
<path d="M170.003 0H0.00292969V40H170.003V0Z" fill="white"/>
</mask>
<g mask="url(#mask0_84_192)">
<path d="M18.2697 0.043141C16.0694 0.285438 12.769 1.29191 10.8911 2.29837C5.84569 4.96364 2.43147 9.11998 0.724362 14.6555C0.38294 15.7366 -0.0153859 18.6814 0.003582 20.0606C0.003582 21.2721 0.38294 24.2356 0.610554 24.9439C0.724362 25.2794 0.970944 26.0808 1.17959 26.6959C1.52101 27.7396 3.17122 31.0199 3.45574 31.2436C3.51264 31.2995 3.81613 31.6723 4.10064 32.101C4.80246 33.1261 6.64234 34.9526 8.027 35.9964C9.0892 36.7978 12.0861 38.4939 12.4655 38.5125C12.5603 38.5125 12.5793 37.8043 12.5224 36.8724C12.3896 34.8035 12.7879 31.9891 13.6415 29.1188C13.7932 28.6342 13.907 28.0005 13.907 27.721C13.907 27.4414 13.9829 27.1432 14.0778 27.05C14.1726 26.9382 14.3433 26.3977 14.4381 25.8385C14.5519 25.2794 14.7416 24.422 14.8744 23.9374C15.0641 23.2105 15.0451 22.9309 14.7796 22.1481C14.4002 20.9553 14.3812 19.0169 14.7606 18.085C15.6521 15.867 16.6384 15.0283 18.3076 15.0283C20.3182 15.0283 21.2855 16.5194 20.9062 19.0169C20.7355 20.1538 20.2613 21.9431 19.9578 22.5023C19.8819 22.67 19.7491 23.136 19.6922 23.5274C19.6164 23.9374 19.4646 24.5152 19.3698 24.832C19.1042 25.5589 19.6164 26.9754 20.2992 27.5159C20.9441 28.0192 22.2908 28.1683 23.5238 27.8887C24.3963 27.7023 24.7567 27.4787 25.6671 26.6213C26.7483 25.5776 27.5639 24.3661 27.5639 23.7883C27.5639 23.6205 27.6588 23.3969 27.7726 23.2851C28.3037 22.7632 28.5882 18.7 28.1899 16.9853C27.7536 15.1029 26.4069 13.2577 24.6618 12.1767C22.9168 11.077 19.3129 10.7601 17.0936 11.5057C15.5383 12.0275 14.1536 12.9035 13.2621 13.9287C12.4655 14.8419 11.6309 16.333 11.6309 16.8549C11.6309 17.0412 11.5361 17.2835 11.4222 17.3954C11.3084 17.5072 11.1757 18.2155 11.1188 18.9796C11.0239 20.1166 11.0998 20.6384 11.4412 21.7567C11.6688 22.5209 12.0861 23.4155 12.3327 23.751C12.8448 24.422 12.8448 24.6829 12.3706 26.4722C12.2379 26.9568 12.0103 27.4041 11.8775 27.46C10.6825 27.9074 8.25461 25.093 7.43899 22.2972C7.13551 21.2349 7.11654 17.4513 7.42002 16.333C7.5528 15.867 7.78041 15.2333 7.93216 14.8978C8.0839 14.581 8.21668 14.2641 8.21668 14.1896C8.21668 14.115 8.59603 13.4813 9.07023 12.7917C11.5361 9.13862 15.5383 7.20024 20.6027 7.20024C21.7597 7.20024 22.9547 7.27479 23.2772 7.36798C25.8947 8.16943 26.5966 8.43036 27.6208 9.02679C29.6124 10.201 31.054 11.8039 32.4956 14.4878C32.5904 14.6555 32.7232 15.1029 32.7801 15.4756C32.856 15.8484 32.9887 16.2025 33.0836 16.2584C33.1784 16.3143 33.2543 17.5258 33.2543 18.961C33.2543 21.5517 33.0646 22.5954 32.268 24.7202C31.3765 27.05 29.0813 29.6221 26.9949 30.6285C25.7999 31.1877 23.5617 31.8028 22.6702 31.8028C21.4752 31.8028 19.1232 30.8336 18.4783 30.0508C18.1748 29.6966 17.8903 29.8271 17.8903 30.3303C17.8903 30.5167 17.8144 30.8336 17.7006 31.0199C17.6058 31.1877 17.4351 31.7096 17.3402 32.1755C16.7902 34.6358 16.0125 36.6301 14.8175 38.4939C14.4571 39.0717 14.7606 39.4072 15.7469 39.5376C16.2401 39.6122 16.904 39.7427 17.2075 39.8358C17.9662 40.0781 22.0822 40.0409 23.4669 39.7986C24.7187 39.5749 26.7483 39.0158 27.6588 38.643C33.3871 36.3318 37.7307 31.635 39.6085 25.6521C40.6138 22.465 40.6707 18.756 39.7603 15.0283C39.4568 13.8168 39.3619 13.5372 38.5463 11.6734C37.3703 8.95223 34.7148 5.76509 32.0214 3.80807C29.7073 2.13063 27.4311 1.16144 23.8841 0.322715C22.8978 0.0990557 19.3888 -0.0873269 18.2697 0.043141ZM68.857 6.77156C68.1173 6.88339 66.9412 8.07623 66.6378 9.00815C66.3153 10.0333 66.6378 11.1329 67.5482 11.9903C69.5588 13.91 73.0489 12.1021 72.6126 9.34364C72.3471 7.59164 70.7159 6.47334 68.857 6.77156ZM48.182 7.87121C48.0113 8.0576 48.0113 30.5353 48.201 30.7963C48.2958 30.9454 49.1114 31.0013 50.7047 30.9827L53.0757 30.964L53.1706 27.1805C53.2464 24.1051 53.3223 23.3596 53.5499 23.2291C53.7017 23.136 54.9915 23.0428 56.4141 23.0428C59.5248 23.0428 60.8336 22.8191 62.2562 22.0736C64.115 21.0857 65.1962 19.6692 65.7842 17.414C66.1446 15.9975 66.1446 14.9724 65.7652 13.5186C65.4238 12.2139 65.2721 11.8971 64.4564 10.8347C63.4512 9.51138 62.4269 8.78449 60.7577 8.2067C59.8283 7.90849 59.0506 7.85258 54.0241 7.79666C50.8944 7.75938 48.2579 7.79666 48.182 7.87121ZM58.5954 12.5121C59.8662 12.9035 60.4922 13.4627 60.7767 14.4692C61.1371 15.7925 60.8715 17.0226 60.0749 17.7681C59.2023 18.5696 58.4247 18.756 55.883 18.756C54.2138 18.756 53.7017 18.7 53.474 18.4577C53.2275 18.2341 53.1706 17.6936 53.1706 15.5688C53.1706 12.2139 53.1516 12.2326 55.7881 12.2326C56.9262 12.2326 58.0263 12.3444 58.5954 12.5121ZM91.865 11.4125C91.865 12.6985 91.7702 13.91 91.6754 14.115C91.5426 14.3573 91.277 14.4692 90.8218 14.4692C90.4804 14.4692 90.1579 14.5437 90.12 14.6555C90.101 14.7487 90.101 15.4011 90.1579 16.0907C90.2528 17.3208 90.2717 17.3395 90.8408 17.4699C91.1632 17.5258 91.5236 17.6377 91.6374 17.7122C91.8081 17.8054 91.865 19.2778 91.865 23.0055C91.865 28.0192 91.884 28.2056 92.3013 28.9511C93.1738 30.5353 94.5395 31.0945 97.3088 31.0199L99.1677 30.964L99.2246 29.1561L99.2815 27.3296H98.8073C98.0865 27.3296 97.0243 26.7704 96.9105 26.3231C96.8536 26.0994 96.7967 24.1238 96.7967 21.9058C96.7967 18.8492 96.8536 17.824 97.0433 17.6749C97.1761 17.5631 97.7072 17.4513 98.2193 17.414L99.1677 17.3581V14.5624L98.1244 14.5064C97.5554 14.4692 97.0243 14.3387 96.9484 14.2269C96.8726 14.0964 96.7967 12.8849 96.7967 11.5243V9.06406H91.865V11.4125ZM162.369 9.17589C162.293 9.25045 162.236 10.4247 162.236 11.7853C162.236 14.4319 162.217 14.4692 161.174 14.4692C160.7 14.4692 160.7 14.4878 160.756 15.9043C160.813 17.3208 160.832 17.3581 161.325 17.414C161.591 17.4513 161.913 17.5818 162.008 17.6936C162.122 17.824 162.236 20.0793 162.293 22.9496C162.35 25.708 162.445 28.2242 162.52 28.5224C162.748 29.3425 163.924 30.3862 165.043 30.7404C166.295 31.1504 169.482 31.1877 169.804 30.7963C169.956 30.6285 170.013 29.9576 169.975 28.9884L169.918 27.4228L169.254 27.3109C168.533 27.1991 167.718 26.8263 167.509 26.5095C167.433 26.3977 167.357 24.3661 167.357 21.999C167.357 17.1344 167.243 17.4513 168.894 17.4513C169.975 17.4513 170.07 17.2649 169.975 15.5688L169.918 14.5624L168.685 14.4692L167.452 14.376L167.357 11.7666L167.262 9.15725L164.872 9.10134C163.564 9.0827 162.445 9.11998 162.369 9.17589ZM82.4759 14.0218C81.5465 14.2641 80.4653 14.8792 79.7446 15.6061C78.872 16.5007 78.6444 16.4448 78.5496 15.3079L78.4927 14.5624H73.7507V30.964L76.1407 31.0013C78.4927 31.0572 78.5496 31.0386 78.6634 30.6285C78.7203 30.4049 78.7772 28.0378 78.7772 25.3539C78.7772 20.042 78.7962 19.8929 79.9153 18.8492C80.4084 18.3832 80.674 18.29 81.7362 18.2341L82.9691 18.1595L83.7089 18.9237C84.5814 19.8183 84.4865 18.961 84.5624 26.6772C84.5814 28.7274 84.6003 30.5353 84.6193 30.7217C84.6572 30.9827 84.9607 31.0199 87.0851 30.9827L89.4941 30.964V17.88L88.944 16.8176C87.9956 14.9724 86.5351 14.0964 84.2969 13.9846C83.5002 13.9659 82.6846 13.9659 82.4759 14.0218ZM106.186 14.0218C104.137 14.5624 103.151 15.1029 101.88 16.333C100.173 18.0291 99.3953 20.0047 99.3953 22.67C99.4143 27.3482 102.392 30.8149 106.793 31.225C110.548 31.5791 113.45 30.4981 115.309 28.0565C115.575 27.7023 116.144 26.5654 116.144 26.3604C116.144 26.2858 115.044 26.2113 113.716 26.2113H111.288L110.719 26.7891C110.055 27.46 109.126 27.8887 108.272 27.8887C107.419 27.8887 106.11 27.2923 105.503 26.6586C105.048 26.1554 104.384 24.7016 104.384 24.1983C104.384 24.0306 105.769 23.9747 110.226 23.9747C113.432 23.9747 116.144 23.9001 116.277 23.8256C116.561 23.6392 116.296 20.6757 115.878 19.5947C115.025 17.3395 113.413 15.4383 111.781 14.7674C111.307 14.581 110.757 14.3387 110.567 14.2455C110.169 14.0405 106.793 13.8727 106.186 14.0218ZM109.885 18.1036C110.624 18.6069 111.269 19.7997 111.174 20.4707C111.117 20.8994 111.08 20.8994 107.874 20.9553C104.175 21.0112 104.156 20.9926 104.744 19.6506C105.162 18.7187 105.996 17.88 106.774 17.6377C107.665 17.3581 109.107 17.5818 109.885 18.1036ZM134.258 14.0218C132.058 14.5996 130.522 15.5502 129.327 17.0226C128.852 17.619 128.473 18.1782 128.473 18.29C128.473 18.3832 128.34 18.7187 128.17 19.0355C127.999 19.3337 127.752 20.2657 127.62 21.1044C126.956 25.093 128.777 28.8206 132.191 30.4981L133.5 31.1504H136.25C139.095 31.1504 139.342 31.0945 141.087 30.1812C142.358 29.5102 144.444 26.9009 144.122 26.379C144.046 26.2858 142.965 26.2113 141.694 26.2113H139.361L138.886 26.7518C136.99 28.8579 133.443 27.7769 132.684 24.8507C132.57 24.4593 132.57 24.1238 132.665 24.0492C132.76 23.9933 135.472 23.956 138.716 23.9747C143.344 23.9747 144.596 23.9374 144.615 23.751C144.785 21.4212 143.647 17.9732 142.225 16.4821C141.428 15.6434 140.043 14.7115 139.361 14.5437C139.057 14.4692 138.716 14.3387 138.583 14.2455C138.317 14.0405 134.846 13.8727 134.258 14.0218ZM137.217 17.6563C138.071 17.9545 139.057 18.9983 139.209 19.7997C139.436 21.0112 139.455 21.0112 135.927 20.9553C132.76 20.8994 132.741 20.8994 132.684 20.4707C132.608 19.9488 133.272 18.6628 133.841 18.1782C134.657 17.5072 136.079 17.2835 137.217 17.6563ZM150.76 14.0218C146.872 14.9351 145.468 16.2957 145.449 19.1287C145.449 22.1854 147.005 23.4714 151.614 24.2729C154.782 24.8134 155.692 25.298 155.654 26.4722C155.635 27.3109 155.047 27.8514 153.871 28.0937C152.392 28.4106 151.235 28.0565 150.305 27.0314L149.565 26.2113H147.27C145.411 26.2113 144.975 26.2672 144.975 26.4722C144.975 27.0127 145.734 28.4292 146.36 29.1375C146.948 29.7525 147.403 30.0508 149.186 30.8895C149.357 30.9827 150.286 31.1318 151.216 31.2436C152.942 31.4486 155.939 31.2622 156.697 30.8895C156.868 30.8149 157.361 30.5726 157.778 30.3862C158.86 29.883 159.884 28.7461 160.263 27.6651C160.681 26.4349 160.567 24.7202 159.979 23.5274C159.277 22.1295 157.418 21.123 154.649 20.6384C151.083 20.0234 151.026 20.0047 150.457 19.4642C149.774 18.7746 149.774 18.5323 150.457 17.7868C151.007 17.1903 151.045 17.1717 152.562 17.1717C154.08 17.1717 154.118 17.1903 154.668 17.7868C154.971 18.1223 155.218 18.5137 155.218 18.6628C155.218 18.8864 155.616 18.9423 157.589 18.9423C160.206 18.9423 160.13 18.9983 159.675 17.6749C158.841 15.3265 156.697 14.1337 153.131 14.0032C152.031 13.9659 150.969 13.9659 150.76 14.0218ZM125.533 14.4132C124.698 14.6928 123.541 15.6247 123.181 16.2957C122.821 16.9667 122.498 16.6871 122.403 15.5688L122.309 14.5624H117.567L117.51 22.3904C117.491 26.6959 117.51 30.4049 117.567 30.6472C117.661 31.0572 117.718 31.0572 119.994 31.0199C121.303 31.0013 122.365 30.8895 122.441 30.7776C122.517 30.6845 122.593 28.7088 122.593 26.3977C122.593 22.7446 122.631 22.0922 122.953 21.2721C123.617 19.576 125.04 18.5696 126.823 18.5696C127.316 18.5696 127.525 18.4764 127.582 18.2341C127.714 17.6936 127.733 15.1774 127.62 14.6183C127.506 14.1709 127.411 14.0964 126.899 14.115C126.557 14.1337 125.95 14.2641 125.533 14.4132ZM67.112 14.6928C67.0551 14.8233 67.0361 18.495 67.0551 22.8564L67.112 30.7776L69.3691 30.8708C70.7348 30.9268 71.7212 30.8895 71.8729 30.7776C72.0815 30.6285 72.1384 29.0443 72.1384 22.7073C72.1574 18.3832 72.1005 14.7487 72.0436 14.6555C71.8539 14.376 67.2068 14.4132 67.112 14.6928Z" fill="#0A0A1B"/>
</g>
</g>
<defs>
<clipPath id="clip0_84_192">
<rect width="171" height="40" fill="white"/>
</clipPath>
</defs>
</svg>
