<svg width="100" height="100" viewBox="0 0 100 100" fill="none" xmlns="http://www.w3.org/2000/svg">
<path fill-rule="evenodd" clip-rule="evenodd" d="M49.9366 13.5742C41.378 13.5742 34.4297 20.5225 34.4297 29.0811C34.4297 37.6397 41.378 44.588 49.9366 44.588C58.4952 44.588 65.4435 37.6397 65.4435 29.0811C65.4435 20.5225 58.4952 13.5742 49.9366 13.5742ZM49.9366 17.019C56.5935 17.019 61.9987 22.4242 61.9987 29.0811C61.9987 35.738 56.5935 41.1432 49.9366 41.1432C43.2797 41.1432 37.8745 35.738 37.8745 29.0811C37.8745 22.4242 43.2797 17.019 49.9366 17.019Z" fill="#232020"/>
<path fill-rule="evenodd" clip-rule="evenodd" d="M41.3824 30.4845L46.2583 35.3604C46.5816 35.6836 47.0201 35.8652 47.4773 35.8652C47.9344 35.8652 48.3729 35.6836 48.6962 35.3604L58.4479 25.6087C58.762 25.2835 58.9358 24.848 58.9319 24.3959C58.9279 23.9439 58.7466 23.5114 58.4269 23.1918C58.1073 22.8721 57.6748 22.6908 57.2228 22.6868C56.7707 22.6829 56.3352 22.8567 56.01 23.1708L47.4773 31.7035L43.8204 28.0466C43.4952 27.7326 43.0597 27.5588 42.6076 27.5627C42.1555 27.5666 41.7231 27.7479 41.4034 28.0676C41.0838 28.3873 40.9024 28.8197 40.8985 29.2718C40.8946 29.7239 41.0684 30.1594 41.3824 30.4845Z" fill="#232020"/>
<path fill-rule="evenodd" clip-rule="evenodd" d="M13.7931 82.7586H5.17241C3.8006 82.7586 2.48498 83.3036 1.51497 84.2736C0.544949 85.2436 0 86.5592 0 87.931V91.3793C0 93.6655 0.908621 95.8586 2.52414 97.4759C4.14159 99.0918 6.33433 99.9997 8.62069 100H77.5862C79.8726 99.9997 82.0653 99.0918 83.6828 97.4759C85.2987 95.8584 86.2066 93.6657 86.2069 91.3793V52.8569C86.2069 52.3996 86.0252 51.9611 85.7019 51.6377C85.3786 51.3144 84.94 51.1328 84.4828 51.1328C84.0255 51.1328 83.5869 51.3144 83.2636 51.6377C82.9403 51.9611 82.7586 52.3996 82.7586 52.8569V91.3793C82.7586 92.7517 82.2138 94.0672 81.2431 95.0362C80.7633 95.5172 80.1933 95.8987 79.5658 96.1591C78.9383 96.4195 78.2656 96.5535 77.5862 96.5535C76.9068 96.5535 76.2341 96.4195 75.6066 96.1591C74.9791 95.8987 74.4091 95.5172 73.9293 95.0362C73.4487 94.5562 73.0674 93.9862 72.8074 93.3587C72.5473 92.7312 72.4136 92.0586 72.4138 91.3793V87.931C72.4138 86.5592 71.8688 85.2436 70.8988 84.2736C69.9288 83.3036 68.6132 82.7586 67.2414 82.7586H17.2414V8.62069C17.2414 7.24888 17.7863 5.93326 18.7563 4.96324C19.7264 3.99323 21.042 3.44828 22.4138 3.44828H84.4828C83.3707 4.93103 82.7586 6.74483 82.7586 8.62069V19.5569C82.7586 20.0142 82.9403 20.4527 83.2636 20.776C83.5869 21.0994 84.0255 21.281 84.4828 21.281C84.94 21.281 85.3786 21.0994 85.7019 20.776C86.0252 20.4527 86.2069 20.0142 86.2069 19.5569V17.2414H94.8276C96.1994 17.2414 97.515 16.6964 98.485 15.7264C99.455 14.7564 100 13.4408 100 12.069V8.62069C99.9997 6.33433 99.0918 4.14159 97.4759 2.52414C95.8584 0.908185 93.6657 0.000330782 91.3793 0H22.4138C20.1274 0 17.9347 0.908249 16.318 2.52494C14.7014 4.14163 13.7931 6.33434 13.7931 8.62069V82.7586ZM67.2414 86.2069H5.17241C4.71514 86.2069 4.2766 86.3885 3.95326 86.7119C3.62993 87.0352 3.44828 87.4738 3.44828 87.931V91.3793C3.44828 92.7517 3.9931 94.0672 4.96379 95.0362C5.44376 95.5168 6.01381 95.8981 6.64131 96.1582C7.26881 96.4182 7.94144 96.552 8.62069 96.5517H70.6897C69.5776 95.069 68.9655 93.2552 68.9655 91.3793V87.931C68.9655 87.4738 68.7839 87.0352 68.4605 86.7119C68.1372 86.3885 67.6986 86.2069 67.2414 86.2069ZM91.3793 3.44828C90.0069 3.44828 88.6914 3.9931 87.7224 4.96379C87.2418 5.44376 86.8605 6.01381 86.6005 6.64131C86.3404 7.26881 86.2067 7.94144 86.2069 8.62069V13.7931H94.8276C95.2849 13.7931 95.7234 13.6115 96.0467 13.2881C96.3701 12.9648 96.5517 12.5262 96.5517 12.069V8.62069C96.5517 7.24828 96.0069 5.93276 95.0362 4.96379C94.5562 4.48315 93.9862 4.10189 93.3587 3.84184C92.7312 3.58178 92.0586 3.44805 91.3793 3.44828Z" fill="#232020"/>
<path fill-rule="evenodd" clip-rule="evenodd" d="M52.0928 72.9587L58.0066 70.988C59.0224 70.6485 59.9455 70.0778 60.7032 69.3208L97.7704 32.2536C99.0083 31.0157 99.7037 29.3369 99.7037 27.5863C99.7037 25.8358 99.0083 24.1569 97.7704 22.9191C96.5326 21.6812 94.8537 20.9858 93.1032 20.9858C91.3526 20.9858 89.6738 21.6812 88.4359 22.9191L51.3687 59.9863C50.6118 60.7432 50.0411 61.6673 49.7015 62.6829L47.7308 68.5967C47.5275 69.2043 47.4975 69.8566 47.6444 70.4802C47.7913 71.1039 48.1091 71.6743 48.5621 72.1274C49.0152 72.5804 49.5856 72.8982 50.2093 73.0451C50.8329 73.1919 51.4852 73.162 52.0928 72.9587ZM51.0015 69.688L55.429 68.2122L52.4773 65.2605L51.0015 69.688ZM86.2066 30.0242L90.6652 34.4829L58.6204 66.5277L54.1618 62.0691L86.2066 30.0242ZM93.1032 32.0449L88.6446 27.5863L90.8739 25.357C91.4694 24.7866 92.2646 24.4721 93.0892 24.4809C93.9137 24.4898 94.702 24.8213 95.2851 25.4044C95.8682 25.9875 96.1997 26.7758 96.2086 27.6003C96.2174 28.4249 95.9029 29.2201 95.3325 29.8156L93.1032 32.0449ZM29.3101 72.4139H43.1032C43.5604 72.4139 43.999 72.2323 44.3223 71.9089C44.6457 71.5856 44.8273 71.147 44.8273 70.6898C44.8273 70.2325 44.6457 69.794 44.3223 69.4706C43.999 69.1473 43.5604 68.9656 43.1032 68.9656H29.3101C28.8528 68.9656 28.4143 69.1473 28.0909 69.4706C27.7676 69.794 27.5859 70.2325 27.5859 70.6898C27.5859 71.147 27.7676 71.5856 28.0909 71.9089C28.4143 72.2323 28.8528 72.4139 29.3101 72.4139ZM29.3101 65.5173H43.1032C43.5604 65.5173 43.999 65.3357 44.3223 65.0124C44.6457 64.689 44.8273 64.2505 44.8273 63.7932C44.8273 63.3359 44.6457 62.8974 44.3223 62.5741C43.999 62.2507 43.5604 62.0691 43.1032 62.0691H29.3101C28.8528 62.0691 28.4143 62.2507 28.0909 62.5741C27.7676 62.8974 27.5859 63.3359 27.5859 63.7932C27.5859 64.2505 27.7676 64.689 28.0909 65.0124C28.4143 65.3357 28.8528 65.5173 29.3101 65.5173ZM29.3101 58.6208H46.5515C47.0087 58.6208 47.4473 58.4391 47.7706 58.1158C48.0939 57.7925 48.2756 57.3539 48.2756 56.8967C48.2756 56.4394 48.0939 56.0008 47.7706 55.6775C47.4473 55.3542 47.0087 55.1725 46.5515 55.1725H29.3101C28.8528 55.1725 28.4143 55.3542 28.0909 55.6775C27.7676 56.0008 27.5859 56.4394 27.5859 56.8967C27.5859 57.3539 27.7676 57.7925 28.0909 58.1158C28.4143 58.4391 28.8528 58.6208 29.3101 58.6208ZM29.3101 51.7242H53.448C53.9053 51.7242 54.3438 51.5426 54.6672 51.2193C54.9905 50.8959 55.1721 50.4574 55.1721 50.0001C55.1721 49.5428 54.9905 49.1043 54.6672 48.781C54.3438 48.4576 53.9053 48.276 53.448 48.276H29.3101C28.8528 48.276 28.4143 48.4576 28.0909 48.781C27.7676 49.1043 27.5859 49.5428 27.5859 50.0001C27.5859 50.4574 27.7676 50.8959 28.0909 51.2193C28.4143 51.5426 28.8528 51.7242 29.3101 51.7242Z" fill="#232020"/>
</svg>
