<svg width="58" height="58" viewBox="0 0 58 58" fill="none" xmlns="http://www.w3.org/2000/svg">
<g clip-path="url(#clip0_73_3008)">
<path d="M36.2774 36.2712C34.6447 39.894 31.9153 42.913 28.5081 44.897C25.7047 46.5359 22.4516 47.4662 18.9705 47.4662C16.2041 47.4662 13.5732 46.8747 11.2011 45.8027C4.75032 42.913 0.221805 36.5238 0.00616125 29.0564C0 28.8716 0 28.6929 0 28.5081C0 28.3232 0 28.1384 0.00616125 27.9597C0.215644 20.4923 4.75032 14.1031 11.195 11.2073C10.1291 13.5794 9.53761 16.204 9.53761 18.9704C9.53761 22.4454 10.4741 25.7047 12.1068 28.5081C14.0908 31.9152 17.1098 34.6447 20.7326 36.2712C23.1047 37.3371 25.7294 37.9286 28.5019 37.9286C31.2745 37.9286 33.9053 37.3371 36.2774 36.2712Z" fill="url(#paint0_linear_73_3008)"/>
<path d="M57.0102 28.5081C57.0102 28.6929 57.0102 28.8777 57.004 29.0564C56.7946 36.5239 52.2599 42.9131 45.8214 45.8088C46.8873 43.4368 47.4788 40.8059 47.4788 38.0395C47.4788 34.5646 46.5422 31.3053 44.9095 28.5019C42.9256 25.0947 39.9066 22.3591 36.2838 20.7326C33.9117 19.6667 31.287 19.0752 28.5144 19.0752C25.7419 19.0752 23.1172 19.6667 20.7451 20.7326C22.3717 17.1098 25.1073 14.0969 28.5083 12.1068C31.3117 10.4679 34.5648 9.5376 38.0459 9.5376C40.8185 9.5376 43.4493 10.1291 45.8214 11.2011C52.2599 14.0969 56.7946 20.4861 57.004 27.9536C57.004 28.1384 57.0102 28.3232 57.0102 28.5081Z" fill="url(#paint1_linear_73_3008)"/>
<path d="M45.8155 11.2011C43.4434 10.1352 40.8126 9.53761 38.04 9.53761C34.5651 9.53761 31.3058 10.4741 28.5024 12.1068C25.0952 14.0908 22.3658 17.1098 20.7392 20.7326C19.6733 23.1047 19.0757 25.7355 19.0757 28.5019C19.0757 31.2683 19.6672 33.8992 20.7331 36.2651C17.1103 34.6385 14.0974 31.9029 12.1073 28.5019C10.4684 25.6985 9.53809 22.4454 9.53809 18.9643C9.53809 16.1979 10.1296 13.5671 11.1955 11.2011C14.0912 4.75648 20.4866 0.221805 27.954 0.00616124C28.1389 0 28.3237 0 28.5086 0C28.6934 0 28.8782 0 29.0569 0.00616124C36.5305 0.221805 42.9197 4.75648 45.8155 11.2011Z" fill="url(#paint2_linear_73_3008)"/>
<path d="M47.4724 38.0395C47.4724 40.8059 46.8809 43.4367 45.815 45.8088C42.9193 52.2535 36.5239 56.7882 29.0565 56.9976C28.8716 57.0038 28.6868 57.0038 28.5081 57.0038C28.3233 57.0038 28.1384 57.0038 27.9598 56.9976C20.4923 56.7882 14.097 52.2535 11.2012 45.8088C13.5733 46.8747 16.1979 47.4724 18.9705 47.4724C22.4454 47.4724 25.7047 46.5358 28.5081 44.9031C31.9153 42.9192 34.6509 39.9002 36.2774 36.2774C37.3433 33.9053 37.9348 31.2806 37.9348 28.5142C37.9348 25.7478 37.3433 23.1108 36.2774 20.7449C39.9003 22.3714 42.9193 25.107 44.9032 28.5142C46.5359 31.3052 47.4724 34.5645 47.4724 38.0395Z" fill="url(#paint3_linear_73_3008)"/>
</g>
<defs>
<linearGradient id="paint0_linear_73_3008" x1="5.96285" y1="21.8013" x2="24.9131" y2="43.7664" gradientUnits="userSpaceOnUse">
<stop stop-color="#93D8DE"/>
<stop offset="1" stop-color="#65C8D0"/>
</linearGradient>
<linearGradient id="paint1_linear_73_3008" x1="51.5226" y1="33.1646" x2="36.8792" y2="19.3825" gradientUnits="userSpaceOnUse">
<stop stop-color="#93D8DE"/>
<stop offset="1" stop-color="#65C8D0"/>
</linearGradient>
<linearGradient id="paint2_linear_73_3008" x1="9.53938" y1="18.1357" x2="45.816" y2="18.1357" gradientUnits="userSpaceOnUse">
<stop stop-color="#221ECA"/>
<stop offset="1" stop-color="#6461DA"/>
</linearGradient>
<linearGradient id="paint3_linear_73_3008" x1="42.4868" y1="22.8624" x2="23.9672" y2="53.4412" gradientUnits="userSpaceOnUse">
<stop stop-color="#221ECA"/>
<stop offset="1" stop-color="#6461DA"/>
</linearGradient>
<clipPath id="clip0_73_3008">
<rect width="57.01" height="57.01" fill="white"/>
</clipPath>
</defs>
</svg>
