<svg width="58" height="58" viewBox="0 0 58 58" fill="none" xmlns="http://www.w3.org/2000/svg">
<path d="M22.8666 40.8912L22.2686 39.3724C21.4378 37.2503 19.7549 35.5674 17.6329 34.7366L16.1141 34.1386L15.4843 33.8952L11.9281 32.5034V32.4981L11.1661 32.2017L7.53578 30.7782L4.5511 29.6087C4.06424 29.397 3.82081 29.0371 3.82081 28.5344C3.82081 28.5185 3.82081 28.5132 3.8261 28.5026C3.82081 28.4921 3.82081 28.4815 3.82081 28.4709C3.82081 27.9629 4.06424 27.603 4.5511 27.3966L7.53578 26.2218L11.1661 24.7983L11.9281 24.5019L10.4622 21.1415L10.404 21.0039L6.90074 22.3798L2.75183 24.0097C1.74106 24.4119 1.02664 24.9782 0.619161 25.7032C0.206387 26.4282 0 27.3649 0 28.5026C0 29.6404 0.206387 30.5718 0.619161 31.3021C1.02664 32.0271 1.74106 32.5933 2.75183 32.9902L6.90603 34.6202L10.4093 35.9961L10.5469 36.049L13.9602 37.3879L14.6905 37.6736C16.8126 38.5098 18.4902 40.1873 19.3263 42.3094L19.6121 43.0397L23.1101 41.5156L22.8666 40.8912Z" fill="white"/>
<path d="M49.8828 43.5326L48.1047 39.4419L46.6018 35.9968L46.5436 35.8592L45.0777 32.4988L43.5324 33.1074L45.083 32.4988L44.7655 31.7791C43.8552 29.6888 43.8552 27.3127 44.7655 25.2223L45.083 24.5026L41.5268 23.1108L41.2569 23.7247L40.606 25.217C39.6905 27.3127 39.6905 29.6941 40.606 31.7844L41.2569 33.2767L41.5268 33.8959L43.0562 37.3939L43.379 38.1401L44.9454 41.7174L46.2261 44.6545C46.4166 45.1413 46.3372 45.57 45.9773 45.9298L45.9562 45.951C45.9509 45.9563 45.9456 45.9669 45.935 45.9722C45.5751 46.332 45.1518 46.4114 44.6596 46.2209L41.7226 44.9349L38.1452 43.3738L37.399 43.0457L36.0602 46.459L36.002 46.5966L39.4523 48.0996L43.543 49.8829C44.5379 50.3169 45.4428 50.4227 46.2472 50.1952C47.0516 49.9729 47.856 49.4596 48.6604 48.6552C49.4647 47.8508 49.9834 47.0464 50.2056 46.2421C50.4226 45.4377 50.3168 44.5328 49.8828 43.5326Z" fill="white"/>
<path d="M34.6199 6.90603L32.9899 2.75183C32.593 1.74106 32.0268 1.02664 31.3018 0.619161C30.5715 0.206387 29.6401 0 28.5023 0C27.3645 0 26.4332 0.206387 25.7029 0.619161C24.9779 1.02664 24.4116 1.74106 24.0147 2.75183L22.3795 6.90603L21.0089 10.404L20.956 10.5416L19.6171 13.9549L19.3313 14.6852C18.4952 16.8073 16.8176 18.4849 14.6955 19.321L13.96 19.6121L15.4893 23.1101L16.1191 22.8613L17.6326 22.2686C19.76 21.4378 21.4428 19.755 22.2737 17.6276L22.8717 16.1088L23.1151 15.4843L24.5069 11.9281L24.8085 11.1714L26.2321 7.53578L27.4016 4.5511C27.6133 4.06953 27.9678 3.8261 28.4759 3.8261H28.5394C29.0474 3.8261 29.402 4.06953 29.6136 4.5511L30.7832 7.53578L32.212 11.1714L32.5084 11.9281L35.8688 10.4675L36.0011 10.404L34.6199 6.90603Z" fill="white"/>
<path d="M50.2 10.7634C49.9777 9.95904 49.4591 9.15466 48.6547 8.35028C47.8503 7.54061 47.046 7.02729 46.2416 6.80502C45.4372 6.58276 44.5323 6.6886 43.5374 7.11725L39.4467 8.90065L35.9963 10.4036V10.4089L35.864 10.4671L32.5036 11.9277L31.7786 12.2452C29.6936 13.1554 27.3175 13.1554 25.2271 12.2452L24.5021 11.9277L23.1104 15.4839L23.7295 15.7538L25.2219 16.4047C27.3122 17.3202 29.6936 17.3202 31.7839 16.4047L33.2815 15.7538L33.8954 15.4839L37.3934 13.9545L36.0545 10.5412L36.0228 10.4671L36.0545 10.5465L37.3934 13.9545L38.1396 13.6317L41.7169 12.0652L44.654 10.7846C45.1461 10.5941 45.5695 10.6735 45.9293 11.0333C45.9346 11.0386 45.9452 11.0439 45.9505 11.0545C45.9558 11.0598 45.9664 11.0651 45.9717 11.0756C46.3315 11.4355 46.4109 11.8589 46.2204 12.351L44.9397 15.2881L43.3733 18.8654L43.0505 19.6116L46.4585 20.9505L46.6014 21.0034L48.0991 17.5583L49.8877 13.4676C50.3164 12.4674 50.4222 11.5678 50.2 10.7634Z" fill="white"/>
<path d="M56.3854 25.7025C55.978 24.9775 55.2635 24.4113 54.2528 24.0091L50.0986 22.3792L46.6006 21.0033L46.5582 21.0879L46.5953 21.0033L46.4577 20.9503L43.0497 19.6115L42.3141 19.3204C40.192 18.4843 38.5144 16.8067 37.6783 14.6846L37.3925 13.9543L33.8945 15.4837L34.138 16.1082L34.736 17.627C35.5668 19.7544 37.2496 21.4372 39.377 22.268L40.8905 22.8607L41.5203 23.1095L45.0765 24.5013L45.9549 22.4903L45.0818 24.5013L45.8385 24.7976L49.4688 26.2211L52.4588 27.396C52.9404 27.6024 53.1838 27.9622 53.1838 28.4702C53.1838 28.4808 53.1838 28.4914 53.1785 28.502C53.1838 28.5126 53.1838 28.5179 53.1838 28.5337C53.1838 29.0365 52.9404 29.3963 52.4588 29.608L49.4688 30.7775L45.8385 32.2011L45.0818 32.4974L46.5476 35.8578L46.6059 35.9954L50.1039 34.6195L54.2581 32.9896C55.2688 32.5927 55.9832 32.0264 56.3907 31.3014C56.8035 30.5712 57.0099 29.6398 57.0099 28.502C57.0046 27.3642 56.7982 26.4275 56.3854 25.7025Z" fill="white"/>
<path d="M33.2777 41.2501L31.7854 40.5939C29.6898 39.6837 27.3137 39.6837 25.2233 40.5939L23.731 41.2501L23.1118 41.52L19.6138 43.0494L18.8677 43.3775L15.2903 44.9386L12.3533 46.2193C11.8611 46.4151 11.4377 46.3357 11.0779 45.9759C11.0726 45.9706 11.062 45.96 11.0567 45.9547C11.0514 45.9494 11.0408 45.9388 11.0355 45.9335C10.6757 45.5737 10.5963 45.145 10.7868 44.6582L12.0728 41.7211L13.6339 38.1384L13.962 37.3976L10.5487 36.0534L10.4111 36.0005L8.90288 39.4456L7.12478 43.5363C6.69084 44.5364 6.585 45.4361 6.80726 46.2458C7.03481 47.0501 7.54814 47.8545 8.35252 48.6589C9.1569 49.4633 9.96128 49.9766 10.7657 50.1989C11.57 50.4264 12.475 50.3206 13.4699 49.8866L17.5606 48.1032L21.0109 46.6003L21.1485 46.5421L24.5089 45.0762L25.2286 44.764C27.319 43.8538 29.6898 43.8538 31.7801 44.764L32.5051 45.0762L33.8969 41.5253L33.2777 41.2501Z" fill="white"/>
<path d="M17.5598 8.90065L13.4691 7.11725C12.4742 6.6886 11.5693 6.58276 10.7649 6.80502C9.96051 7.02729 9.15613 7.54061 8.35175 8.35028C7.54737 9.15466 7.03405 9.95904 6.80649 10.7634C6.58423 11.5678 6.69007 12.4674 7.11872 13.4676L8.90741 17.5583L10.4103 21.0034L10.4685 21.141L11.9344 24.5014L13.6543 23.8293L11.9397 24.5014L12.2519 25.2264C13.1622 27.3167 13.1622 29.6875 12.2519 31.7779L11.9397 32.4976L15.4906 33.8946L15.7605 33.2755L16.4061 31.7831C17.3217 29.6928 17.3217 27.3167 16.4114 25.2211L15.7552 23.7288L15.4853 23.1096L13.956 19.6116L13.6331 18.8654L12.072 15.2881L10.7861 12.351C10.5955 11.8589 10.6749 11.4355 11.0348 11.0756C11.0401 11.0651 11.0507 11.0598 11.056 11.0545C11.0612 11.0439 11.0718 11.0386 11.0771 11.0333C11.437 10.6735 11.8603 10.5941 12.3525 10.7846L15.2895 12.0652L18.8669 13.6317L19.6131 13.9545L20.9572 10.5465L21.0102 10.4036L17.5598 8.90065Z" fill="white"/>
<path d="M41.5205 33.8953L40.8907 34.1387L39.372 34.7367C37.2499 35.5675 35.567 37.2504 34.7362 39.3725L34.1382 40.8913L33.8948 41.521L32.503 45.0772L32.2066 45.834L30.7778 49.4696L29.6083 52.4542C29.3966 52.9358 29.042 53.1845 28.534 53.1845C28.5234 53.1845 28.5128 53.1845 28.5022 53.1792C28.4916 53.1845 28.4811 53.1845 28.4705 53.1845C27.9624 53.1845 27.6079 52.9358 27.3962 52.4542L26.2267 49.4696L24.8031 45.834L24.5068 45.0772L21.1411 46.5431L21.0088 46.6013L22.3794 50.1046L24.0146 54.2535C24.4115 55.2696 24.9778 55.9787 25.7028 56.3915C26.4331 56.8042 27.3645 57.0053 28.5022 57.0053C29.64 57.0053 30.5714 56.8042 31.3017 56.3915C32.0267 55.9787 32.5929 55.2696 32.9898 54.2535L34.6198 50.1046L35.9957 46.6013L35.9322 46.5695L35.9957 46.596L36.0486 46.4584L37.3875 43.0451L37.6732 42.3148C38.5094 40.1927 40.1869 38.5152 42.309 37.679L43.0446 37.3933L41.5205 33.8953Z" fill="white"/>
</svg>
