<svg width="50" height="41" viewBox="0 0 50 41" fill="none" xmlns="http://www.w3.org/2000/svg">
<g clip-path="url(#clip0_56_97)">
<mask id="mask0_56_97" style="mask-type:luminance" maskUnits="userSpaceOnUse" x="0" y="0" width="50" height="41">
<path d="M50 0H0V40.9091H50V0Z" fill="white"/>
</mask>
<g mask="url(#mask0_56_97)">
<path d="M47.2887 25.6817V8.74184C47.2885 8.71348 47.2864 8.68516 47.2823 8.65709C47.3246 8.36593 47.1572 8.08493 46.881 7.98344L25.3864 0.0824035C25.2478 0.0314514 25.0956 0.0314514 24.957 0.0824035L3.4624 7.98323C3.21951 8.07252 3.05721 8.30278 3.05471 8.56154C3.05232 8.82031 3.21025 9.05359 3.4514 9.14745L10.026 11.7062V18.844H11.2708V12.1906L24.946 17.5128C25.0912 17.5692 25.2522 17.5692 25.3974 17.5128L39.0726 12.1906V20.3033C32.7782 22.5649 26.0274 23.2585 19.4046 22.3239C19.1844 22.2926 18.9643 22.3812 18.8272 22.5562C18.69 22.7313 18.6567 22.9662 18.7397 23.1725C18.8227 23.3788 19.0094 23.5251 19.2296 23.5564C21.1903 23.8344 23.1682 23.9737 25.1486 23.9734C29.8887 23.9737 34.5954 23.1796 39.0731 21.6243V27.2657C33.4611 29.2777 27.48 30.0507 21.5409 29.5316L21.4309 30.7715C22.6586 30.8805 23.8905 30.9349 25.1266 30.9347C30.1733 30.9346 35.1798 30.0371 39.9123 28.2841C40.156 28.1934 40.3176 27.9608 40.3177 27.7008V11.7062L46.0438 9.47753V25.6912C44.4028 26.0247 43.2834 27.55 43.4575 29.2155C43.6316 30.881 45.0422 32.1418 46.7167 32.1289C48.3912 32.1156 49.7819 30.8328 49.9298 29.1648C50.0778 27.4968 48.9348 25.9894 47.2887 25.6817ZM25.1717 16.2649L5.43594 8.58406L25.1717 1.32981L44.9075 8.58406L25.1717 16.2649ZM46.6936 30.8795C45.8829 30.8795 45.152 30.3912 44.8417 29.6422C44.5315 28.8933 44.7029 28.0311 45.2762 27.4579C45.8494 26.8846 46.7115 26.7131 47.4605 27.0233C48.2095 27.3336 48.6978 28.0644 48.6978 28.8751C48.6966 29.9816 47.8 30.8782 46.6936 30.8795Z" fill="#232020"/>
<path d="M22.0463 29.2089C22.0463 23.136 17.1233 18.213 11.0505 18.213C4.9777 18.213 0.0546875 23.136 0.0546875 29.2089C0.0546875 35.2817 4.9777 40.2047 11.0505 40.2047C17.1205 40.1979 22.0395 35.2789 22.0463 29.2089ZM11.0505 38.9599C5.66519 38.9599 1.2995 34.5942 1.2995 29.2089C1.2995 23.8235 5.66519 19.4578 11.0505 19.4578C16.4358 19.4578 20.8015 23.8235 20.8015 29.2089C20.7954 34.5917 16.4333 38.9538 11.0505 38.9599Z" fill="#232020"/>
<path d="M15.014 25.8347L9.58596 31.2627L7.09187 28.7687C6.93537 28.6079 6.70444 28.5438 6.48745 28.6009C6.27047 28.658 6.10101 28.8275 6.04393 29.0445C5.98685 29.2615 6.05098 29.4924 6.21179 29.6489L9.14592 32.5829C9.38897 32.8259 9.78295 32.8259 10.026 32.5829L15.8942 26.7148C16.0535 26.558 16.1166 26.3278 16.0593 26.1116C16.002 25.8955 15.8332 25.7267 15.6171 25.6695C15.401 25.6122 15.1708 25.6753 15.014 25.8347Z" fill="#232020"/>
</g>
</g>
<defs>
<clipPath id="clip0_56_97">
<rect width="50" height="41" fill="white"/>
</clipPath>
</defs>
</svg>
