<svg width="58" height="58" viewBox="0 0 58 58" fill="none" xmlns="http://www.w3.org/2000/svg">
<path d="M40.8514 36.5844C40.8514 38.1769 40.6547 39.7694 40.2858 41.325C40.2489 41.4787 40.2181 41.6386 40.1751 41.7923C40.1751 41.7984 40.1689 41.8046 40.1689 41.8107C39.2774 45.1925 37.5189 48.3713 34.8688 51.0275C32.7537 53.1426 30.3065 54.686 27.6934 55.6759C27.6872 55.682 27.6872 55.682 27.6811 55.682C25.3508 56.5613 22.8852 57.004 20.4196 57.004C15.3715 57.004 10.342 55.1532 6.41301 51.4395C6.27159 51.3042 6.12402 51.1628 5.98261 51.0275C5.84734 50.8861 5.70592 50.7447 5.57065 50.5971C1.85688 46.6682 0 41.6386 0 36.5906C0 36.0495 0.0245945 35.5084 0.0676348 34.9735C0.854658 36.0741 1.74621 37.1255 2.73614 38.1154C5.96416 41.3496 9.87468 43.5139 14.0066 44.6022C14.0127 44.6084 14.025 44.6084 14.0373 44.6084C15.347 44.9527 16.6751 45.1925 18.0155 45.3216C18.2921 45.3462 18.5811 45.3646 18.8578 45.3892C19.3743 45.42 19.8908 45.4323 20.4073 45.4323C20.4134 45.4323 20.4257 45.4384 20.4319 45.4384C21.8522 45.4384 23.2664 45.3155 24.6683 45.0757C26.0701 44.8359 27.4536 44.4731 28.8063 43.9874C28.9784 43.9259 29.1506 43.8705 29.3228 43.809H29.3289C32.5385 42.5916 35.5452 40.6855 38.1276 38.1093C39.1175 37.1193 40.0029 36.0679 40.7899 34.9612C40.8084 35.1887 40.8268 35.4223 40.8391 35.656C40.8391 35.9634 40.8514 36.277 40.8514 36.5844Z" fill="#FFC005"/>
<path d="M57.01 20.4072C57.01 20.9483 56.9854 21.4955 56.9424 22.0366C56.1492 20.936 55.2638 19.8845 54.2739 18.8946C51.0397 15.6604 47.1353 13.4961 43.0035 12.4078C42.9973 12.4017 42.985 12.4017 42.9727 12.4017C41.4048 11.9836 39.8 11.7253 38.1891 11.6208C37.6542 11.5901 37.1131 11.5716 36.5782 11.5716C36.2031 11.5716 35.8219 11.5778 35.4468 11.5962C34.9549 11.6208 34.463 11.6577 33.9712 11.7069C33.6391 11.7376 33.3133 11.7807 32.9874 11.8299C32.8275 11.8544 32.6615 11.879 32.5016 11.9098C32.4278 11.9159 32.3541 11.9282 32.2864 11.9405C32.268 11.9467 32.2557 11.9467 32.2372 11.9467C32.1635 11.959 32.0897 11.9713 32.0159 11.9897C31.856 12.0205 31.69 12.0512 31.5302 12.0819C31.3703 12.1127 31.2043 12.1557 31.0444 12.1926C30.9583 12.2111 30.8845 12.2295 30.8046 12.248C30.7616 12.2603 30.7185 12.2664 30.6816 12.2787C30.6386 12.2849 30.6017 12.2971 30.5587 12.3094C30.3988 12.3463 30.2328 12.3894 30.0729 12.4324C29.87 12.4878 29.6733 12.5431 29.4704 12.5984C29.4519 12.6046 29.4273 12.6107 29.4089 12.6169C29.3904 12.623 29.3781 12.6292 29.3597 12.6353C29.3535 12.6353 29.3412 12.6415 29.3289 12.6415C29.3228 12.6415 29.3228 12.6415 29.3166 12.6476C29.2859 12.6538 29.2429 12.6661 29.206 12.6784C29.1875 12.6845 29.1752 12.6845 29.1629 12.6907C29.1445 12.6968 29.1322 12.703 29.1137 12.7091C29.0154 12.7398 28.9231 12.7706 28.8248 12.8013C28.7387 12.8321 28.6587 12.8567 28.5788 12.8874C28.5665 12.8936 28.5481 12.8936 28.5358 12.8997C28.4927 12.912 28.4497 12.9305 28.4128 12.9428C28.3698 12.9551 28.3267 12.9735 28.2898 12.9858C28.2468 12.9981 28.2099 13.0165 28.1669 13.0288C28.007 13.0842 27.8533 13.1395 27.6996 13.201H27.6934C24.4838 14.4184 21.4772 16.3245 18.9009 18.9008C17.911 19.8907 17.0194 20.9421 16.2324 22.0427C16.2139 21.8152 16.2016 21.5877 16.1893 21.3602C16.177 21.0528 16.1709 20.7454 16.1709 20.4379C16.1709 20.2166 16.1893 20.0014 16.1893 19.78C16.2324 18.3843 16.423 16.9824 16.755 15.6174C16.7858 15.4821 16.8104 15.353 16.8472 15.2177C16.8472 15.2116 16.8472 15.2116 16.8534 15.2054C17.7449 11.8237 19.5035 8.64487 22.1535 5.98867C24.2686 3.87354 26.7158 2.33024 29.3351 1.34031C31.6839 0.448759 34.1679 0.012207 36.6642 0.012207C41.6815 0.012207 46.6926 1.87524 50.6155 5.57671C50.7569 5.71198 50.8983 5.84725 51.0397 5.98867V5.99481C51.1811 6.13008 51.3164 6.2715 51.4578 6.41907C55.147 10.3419 57.0039 15.3653 57.01 20.4072Z" fill="#FFC005"/>
<path d="M18.8947 38.1153C19.8846 39.1052 20.936 39.9968 22.0367 40.7838C21.5017 40.8268 20.9668 40.8514 20.4319 40.8514C18.6795 40.8514 16.921 40.6239 15.2178 40.1751C15.2117 40.1751 15.2055 40.1689 15.1994 40.1689C11.8238 39.2774 8.63881 37.5189 5.98261 34.8688C3.86748 32.7537 2.31803 30.3065 1.3281 27.6934C0.442701 25.3569 0 22.8852 0 20.4134C0 15.3715 1.85688 10.342 5.5645 6.40686C5.69977 6.26544 5.84119 6.12402 5.98261 5.98261C6.11788 5.84119 6.26544 5.70592 6.40686 5.5645C10.342 1.85688 15.3715 0 20.4257 0C20.9668 0 21.5017 0.0245945 22.0428 0.0676348C22.0182 0.0860807 21.9936 0.0983779 21.969 0.122972C20.893 0.897698 19.8662 1.7708 18.8947 2.73614C15.6605 5.97031 13.4901 9.88083 12.4079 14.0066C12.4018 14.0127 12.4018 14.025 12.3956 14.0311C11.8422 16.1278 11.5717 18.2798 11.5717 20.4319C11.5717 23.4447 12.1128 26.4575 13.2011 29.3166C14.4062 32.5262 16.3123 35.539 18.8947 38.1153Z" fill="#FF0C5D"/>
<path d="M57.0102 36.5967C57.0102 41.6386 55.1594 46.6681 51.4457 50.6033C51.3104 50.7447 51.169 50.8861 51.0276 51.0275C50.8862 51.1689 50.7447 51.3042 50.6033 51.4456C46.6682 55.1594 41.6448 57.0101 36.5968 57.0101C36.0557 57.0101 35.5085 56.9855 34.9735 56.9425C36.0741 56.1555 37.1255 55.2639 38.1155 54.2801C41.3435 51.046 43.514 47.1416 44.6023 43.0097C44.6084 42.9974 44.6084 42.9913 44.6084 42.979C44.8175 42.1919 44.9835 41.3988 45.1126 40.5995C45.1987 40.0707 45.2663 39.5357 45.3217 39.0008C45.3954 38.1953 45.4385 37.3899 45.4385 36.5844C45.4385 33.5654 44.8974 30.5526 43.8091 27.6874C43.2004 26.0826 42.4195 24.5331 41.4665 23.0513C40.5196 21.5756 39.3944 20.1799 38.1093 18.8948C37.1194 17.8988 36.0618 17.0133 34.9551 16.2202C35.1826 16.2017 35.4162 16.1894 35.6499 16.1771C35.9573 16.1648 36.2647 16.1587 36.5722 16.1587C37.0087 16.1587 37.4514 16.171 37.8941 16.2017C39.2038 16.2878 40.5073 16.4969 41.7923 16.835C41.7985 16.835 41.7985 16.8412 41.8108 16.8412C45.1864 17.7327 48.3714 19.4912 51.0276 22.1413C53.1427 24.2564 54.686 26.7036 55.6821 29.3167C56.5675 31.6532 57.0102 34.125 57.0102 36.5967Z" fill="#221ECA"/>
</svg>
