<svg width="141" height="34" viewBox="0 0 141 34" fill="none" xmlns="http://www.w3.org/2000/svg">
<g clip-path="url(#clip0_84_186)">
<mask id="mask0_84_186" style="mask-type:luminance" maskUnits="userSpaceOnUse" x="0" y="0" width="141" height="34">
<path d="M140.003 0H0.00292969V34H140.003V0Z" fill="white"/>
</mask>
<g mask="url(#mask0_84_186)">
<path d="M45.2089 13.2956C45.2089 10.8706 42.7668 8.29513 38.5406 8.29513C33.7948 8.29513 28.5814 11.6567 27.7847 18.363C26.9706 25.1363 31.3354 28.1466 35.7347 28.1466C40.1341 28.1466 42.4377 26.4909 44.7932 24.2833C42.7668 21.8249 40.1514 22.9621 39.6491 23.213C39.0949 23.4806 38.3847 23.8485 36.9298 23.8485C35.2324 23.8485 33.5004 23.1126 33.5004 20.0521C44.3775 19.0152 45.2089 15.7206 45.2089 13.2956ZM39.8223 13.697C39.753 14.4496 39.4413 15.7373 33.9334 16.4565C35.0939 12.4761 37.3109 12.1751 38.3328 12.1751C39.2854 12.1751 39.8916 12.8942 39.8223 13.697ZM21.3935 14.3492C21.3935 14.3492 19.0553 21.4402 18.8647 22.0256C18.7955 21.4235 17.0807 8.69651 17.0807 8.69651C13.0971 8.69651 10.9667 11.4393 9.84086 14.3325C9.84086 14.3325 7.00033 21.4402 6.75785 22.0423C6.74053 21.4904 6.32484 14.4161 6.32484 14.4161C6.08236 10.8706 2.72222 8.71323 0.00292969 8.71323L3.29379 27.9961C7.46798 27.9793 9.71962 25.2533 10.8974 22.3601C10.8974 22.3601 13.4088 16.0885 13.5128 15.8042C13.5301 16.0718 15.3141 27.9961 15.3141 27.9961C19.5056 27.9961 21.7572 25.4373 22.9697 22.6444L28.8412 8.71323C24.7017 8.71323 22.5193 11.4393 21.3935 14.3492ZM60.5893 8.26168C58.0086 8.26168 56.0341 9.61633 54.3714 11.6065V11.5898L55.8609 0C52.4315 0 49.6429 2.87654 49.106 7.15789L46.5079 27.8455C48.4825 27.8455 50.5782 27.2937 51.704 25.8888C52.7086 27.1431 54.2155 28.1466 56.4498 28.1466C62.2348 28.1466 66.2011 21.6576 66.2011 15.5701C66.1665 10.0177 63.3779 8.26168 60.5893 8.26168ZM60.0524 18.2125C59.4462 21.6075 57.489 23.9154 55.6011 23.9154C53.6959 23.9154 52.8818 23.0959 52.8818 23.0959C53.2455 20.119 53.4707 18.2961 54.1635 16.7241C54.8563 15.152 56.5018 12.6434 58.2165 12.6434C59.8965 12.6434 60.6586 14.8008 60.0524 18.2125ZM80.6463 8.71323H76.6106L76.6279 8.51254C76.9051 5.97049 77.5286 4.63256 79.5897 4.41515C80.9927 4.28136 81.6162 3.57895 81.7721 2.80964C81.8933 2.20757 82.2744 0.117068 82.2744 0.117068C74.1685 0.0668962 71.6224 3.44516 70.9642 8.59616L70.9469 8.71323H70.8603C69.5439 8.71323 68.089 10.1515 67.8466 11.9744L67.76 12.6434H70.4619L68.193 30.7388L67.5001 33.9833C67.5868 33.9833 67.6907 34 67.7773 34C71.5704 33.8662 73.9953 30.9729 74.5322 26.7752L76.2989 12.6434H77.5632C78.8103 12.6434 80.2652 11.4393 80.525 9.43237L80.6463 8.71323ZM101.638 8.37875C96.9793 8.37875 92.5799 11.6901 91.229 16.8913C89.878 22.0925 91.9218 28.2469 98.7806 28.2469C105.622 28.2469 109.571 21.8416 109.571 16.5066C109.571 11.2051 105.847 8.37875 101.638 8.37875ZM103.526 18.0453C103.284 20.4033 102.21 23.9823 99.2656 23.9823C96.3038 23.9823 96.7195 19.8013 97.0139 17.8111C97.3257 15.6872 98.5554 12.6601 101.205 12.6601C103.578 12.6601 103.804 15.3861 103.526 18.0453ZM132.59 14.3492C132.59 14.3492 130.252 21.4402 130.061 22.0256C129.992 21.4235 128.277 8.69651 128.277 8.69651C124.293 8.69651 122.163 11.4393 121.037 14.3325C121.037 14.3325 118.197 21.4402 117.954 22.0423C117.937 21.4904 117.521 14.4161 117.521 14.4161C117.279 10.8706 113.919 8.71323 111.199 8.71323L114.473 27.9961C118.647 27.9793 120.899 25.2533 122.076 22.3601C122.076 22.3601 124.588 16.0885 124.674 15.8042C124.709 16.0718 126.476 27.9961 126.476 27.9961C130.667 27.9961 132.919 25.4373 134.131 22.6444L140.003 8.71323C135.881 8.71323 133.698 11.4393 132.59 14.3492ZM84.4567 0.117068L81.0619 26.5578L80.3691 29.819C80.4557 29.819 80.5597 29.8357 80.6463 29.8357C84.3008 29.7855 86.8989 26.6916 87.3839 22.7949L89.341 7.62617C89.9299 2.99361 87.0721 0.117068 84.4567 0.117068Z" fill="#0A0A1B"/>
</g>
</g>
<defs>
<clipPath id="clip0_84_186">
<rect width="141" height="34" fill="white"/>
</clipPath>
</defs>
</svg>
